<?xml version="1.0" encoding="utf-8"?>
<!-- Generator: Adobe Illustrator 25.0.1, SVG Export Plug-In . SVG Version: 6.00 Build 0)  -->
<svg version="1.1" xmlns="http://www.w3.org/2000/svg" xmlns:xlink="http://www.w3.org/1999/xlink" x="0px" y="0px"
	 viewBox="0 0 100 100" style="enable-background:new 0 0 100 100;" xml:space="preserve">
<style type="text/css">
	.st0{display:none;}
	.st1{display:inline;fill:#FFFFFF;}
	.st2{display:inline;}
	.st3{fill:#FFFFFF;}
</style>
<g id="Fermeture_-_copie" class="st0">
	<path class="st1" d="M0,0v100h100V0H0z M46.17,49.7L5,90.87V8.53L46.17,49.7z M8.54,5h82.33L49.71,46.17L8.54,5z M49.71,53.24
		L91.47,95H7.94L49.71,53.24z M53.24,49.7L95,7.94v83.52L53.24,49.7z"/>
</g>
<g id="Calque_2" class="st0">
	<rect class="st2" width="100" height="100"/>
</g>
<g id="icnContact">
	<path class="st3" d="M49.66,10.29c-22.09,0-40,17.91-40,40c0,20.18,14.95,36.87,34.38,39.6c-4.67-4.92-4.66-10.15-4.36-12.51
		c4.72,3.26,4.61,3.91,4.92,5.17c-0.3-3.7,3.55-11.05,3.81-15.1c1.21,5.49,3.03,11.47,1.77,15.96c2.93-5.66,2.15-8.23,3.93-12.48
		c1.83,4.36,3.66,9.71,2.45,13.55c2.14-4.07,1.14-4.96,3.33-8.89c1.33,5.22,1.06,8.75-1.56,13.73
		c17.92-3.96,31.33-19.93,31.33-39.05C89.66,28.2,71.75,10.29,49.66,10.29z M58.09,46.79c0,2.3-1.88,4.17-4.21,4.21
		c0,0.03,0,0.06,0,0.09c0,2.33-1.92,4.22-4.29,4.22c-1.88,0-3.47-1.19-4.05-2.84c-0.35,0.09-0.72,0.14-1.1,0.14
		c-2.37,0-4.29-1.89-4.29-4.22c0-2.33,1.92-4.22,4.29-4.22c0.32,0,0.62,0.04,0.92,0.1c-0.31-0.58-0.49-1.25-0.49-1.96
		c0-2.33,1.92-4.22,4.29-4.22c2.37,0,4.29,1.89,4.29,4.22c0,0.09-0.01,0.18-0.01,0.27c0.12-0.01,0.24-0.02,0.36-0.02
		C56.17,42.57,58.09,44.46,58.09,46.79z M27.92,33.86c-1.94-3.01-1.04-7,2.02-8.91c0.7-0.43,1.44-0.72,2.21-0.87
		c-1.06-2.82-0.03-6.08,2.66-7.75c3.09-1.93,7.17-1.03,9.13,2.01c0.42,0.65,0.7,1.34,0.86,2.04c2.61-0.23,5.26,0.94,6.77,3.27
		c2.14,3.32,1.14,7.72-2.23,9.83c-3.14,1.96-7.22,1.25-9.5-1.53c-0.39,1.56-1.36,2.98-2.85,3.9C33.92,37.76,29.87,36.87,27.92,33.86
		z M60.32,66c-11.04-4.21-13.29,1.74-28.22-1.32c1.35-1.74,5.44-5.81,9.81-7.43c14.93,3.06,17.19-2.91,28.23,1.3
		C65.77,60.17,61.68,64.26,60.32,66z"/>
</g>
<g id="icnContactClose" class="st0">
	<path class="st1" d="M0,0v100h100V0H0z M90.87,5L75.82,20.05c-7.01-6.07-16.16-9.76-26.16-9.76c-9.98,0-19.1,3.67-26.11,9.71
		L8.54,5H90.87z M65.03,61.49l-4.43-4.43c2.71-0.23,5.55-0.04,9.53,1.48C68.33,59.22,66.57,60.31,65.03,61.49z M34.81,16.33
		c3.09-1.93,7.17-1.03,9.13,2.01c0.42,0.65,0.7,1.34,0.86,2.04c2.61-0.23,5.26,0.94,6.77,3.27c2.14,3.32,1.14,7.72-2.23,9.83
		c-3.14,1.96-7.22,1.25-9.5-1.53c-0.26,1.03-0.8,1.99-1.55,2.8l-9.17-9.17c0.26-0.22,0.53-0.44,0.83-0.62
		c0.7-0.43,1.44-0.72,2.21-0.87C31.09,21.27,32.13,18.01,34.81,16.33z M53.46,42.42l-3.75,3.75l-4.73-4.73
		c0.41-1.9,2.13-3.33,4.19-3.33c2.37,0,4.29,1.89,4.29,4.22C53.46,42.35,53.46,42.38,53.46,42.42z M51.39,54.92
		c-0.55,0.25-1.15,0.4-1.79,0.4c-0.58,0-1.13-0.13-1.64-0.33l1.75-1.75L51.39,54.92z M33.33,36.86c-2.12-0.05-4.18-1.1-5.4-2.99
		c-0.69-1.07-1.01-2.25-1.02-3.43L33.33,36.86z M40.16,48.39c0-1.28,0.6-2.42,1.51-3.19l4.5,4.5l-2.77,2.77
		C41.54,52.01,40.16,50.37,40.16,48.39z M45.15,57.79c3.84,0.52,6.74,0.4,9.22,0.11l6.94,6.94c-0.41,0.44-0.75,0.84-1,1.15
		c-9.56-3.64-12.53,0.32-22.84-0.53L45.15,57.79z M58.09,46.79c0,2.1-1.57,3.83-3.62,4.15l-1.24-1.24l4.52-4.52
		C57.98,45.67,58.09,46.22,58.09,46.79z M5,8.53l14.97,14.97c-6.4,7.09-10.31,16.49-10.31,26.8c0,10.01,3.68,19.15,9.75,26.17
		L5,90.87V8.53z M7.94,95l14.98-14.98c5.77,5.19,13.06,8.73,21.12,9.87c-4.67-4.92-4.66-10.15-4.36-12.51
		c4.72,3.26,4.61,3.91,4.92,5.17c-0.3-3.7,3.55-11.05,3.81-15.1c1.21,5.49,3.03,11.47,1.77,15.96c2.93-5.66,2.15-8.23,3.93-12.48
		c1.83,4.36,3.66,9.71,2.45,13.55c2.14-4.07,1.14-4.96,3.33-8.89c1.33,5.22,1.06,8.75-1.56,13.73c6.87-1.52,13.07-4.81,18.11-9.36
		L91.47,95H7.94z M95,91.46L79.95,76.4c6.05-7.01,9.71-16.13,9.71-26.11c0-10.28-3.88-19.66-10.26-26.75L95,7.94V91.46z"/>
</g>
<g id="Fermeture" class="st0">
	<path class="st1" d="M0,0v100h100V0H0z M46.17,49.7L5,90.87V8.53L46.17,49.7z M8.54,5h82.33L49.71,46.17L8.54,5z M49.71,53.24
		L91.47,95H7.94L49.71,53.24z M53.24,49.7L95,7.94v83.52L53.24,49.7z"/>
</g>
</svg>
