<?xml version="1.0" encoding="utf-8"?>
<!-- Generator: Adobe Illustrator 25.0.1, SVG Export Plug-In . SVG Version: 6.00 Build 0)  -->
<svg version="1.1" id="Calque_1" xmlns="http://www.w3.org/2000/svg" xmlns:xlink="http://www.w3.org/1999/xlink" x="0px" y="0px"
	 viewBox="0 0 100 100" style="enable-background:new 0 0 100 100;" xml:space="preserve">
<style type="text/css">
	.st0{fill:#FFFFFF;}
</style>
<g>
	<path class="st0" d="M66.45,94.97c-6.03,3.18-12.18,4.39-19.53,4.39c-17.99,0-33.25-13.17-33.25-34.23
		c0-22.6,15.69-42.13,40.05-42.13c19.09,0,31.93,13.39,31.93,31.71c0,16.46-9.22,26.11-19.53,26.11c-4.39,0-8.45-2.96-8.12-9.66
		h-0.44c-3.84,6.47-8.89,9.66-15.47,9.66c-6.36,0-11.85-5.16-11.85-13.83c0-13.61,10.75-26,26-26c4.72,0,8.89,0.99,11.74,2.3
		l-3.73,19.86c-1.65,8.34-0.33,12.18,3.29,12.29c5.6,0.11,11.85-7.35,11.85-20.08c0-15.91-9.55-27.32-26.55-27.32
		c-17.88,0-32.92,14.15-32.92,36.43c0,18.32,11.96,29.63,28.2,29.63c6.25,0,12.07-1.32,16.57-3.84L66.45,94.97z M60.41,47.57
		c-1.1-0.33-2.96-0.77-5.49-0.77c-9.66,0-17.45,9.11-17.45,19.75c0,4.83,2.41,8.34,7.24,8.34c6.36,0,12.18-8.12,13.39-14.92
		L60.41,47.57z"/>
</g>
</svg>
