<?xml version="1.0" encoding="utf-8"?>
<!-- Generator: Adobe Illustrator 25.0.1, SVG Export Plug-In . SVG Version: 6.00 Build 0)  -->
<svg version="1.1" id="Calque_1" xmlns="http://www.w3.org/2000/svg" xmlns:xlink="http://www.w3.org/1999/xlink" x="0px" y="0px"
	 viewBox="0 0 30.87 50" style="enable-background:new 0 0 30.87 50;" xml:space="preserve">
<style type="text/css">
	.st0{fill:#FFFFFF;}
</style>
<g>
	<g>
		<path class="st0" d="M20.42,42.22c-0.21-0.92-0.26-1.98-0.13-3.23c0.02-0.2,0.13-0.37,0.29-0.47l3.49-2.15
			c0.16-0.1,0.36-0.12,0.53-0.05c3.52,1.35,3.61,3.66,3.7,5.9c0.07,1.83,0.15,3.72,1.97,5.56c0.21,0.21,0.25,0.53,0.1,0.79
			c-0.15,0.25-0.45,0.36-0.72,0.27C24.21,46.95,21.2,45.52,20.42,42.22z"/>
	</g>
	<g>
		<path class="st0" d="M16.85,33.04c-0.06-0.26,0.04-0.54,0.28-0.69l3.44-2.1c0.14-0.09,0.31-0.11,0.47-0.07
			c0.16,0.04,0.3,0.15,0.38,0.3l2.68,4.63c0.08,0.15,0.11,0.32,0.07,0.49c-0.04,0.16-0.15,0.3-0.29,0.39l-3.53,2.06
			c-0.29,0.17-0.67,0.06-0.84-0.24l-2.59-4.58C16.89,33.16,16.87,33.1,16.85,33.04z"/>
	</g>
	<g>
		<path class="st0" d="M0.98,3.16c-0.12-0.5,0.07-1.02,0.5-1.29C2.38,1.32,3.3,2.76,3.64,3.3c0,0,0,0,0,0
			c0.1,0.16,10.5,16.58,16.82,25.68c0.1,0.15,0.14,0.33,0.1,0.5c-0.03,0.17-0.14,0.32-0.28,0.41l-3.37,2.07
			c-0.14,0.09-0.32,0.11-0.48,0.07c-0.16-0.05-0.3-0.16-0.38-0.31L1.1,3.48C1.05,3.38,1.01,3.27,0.98,3.16z"/>
	</g>
</g>
</svg>
