<?xml version="1.0" encoding="utf-8"?>
<!-- Generator: Adobe Illustrator 25.0.1, SVG Export Plug-In . SVG Version: 6.00 Build 0)  -->
<svg version="1.1" id="Calque_1" xmlns="http://www.w3.org/2000/svg" xmlns:xlink="http://www.w3.org/1999/xlink" x="0px" y="0px"
	 viewBox="0 0 100 100" style="enable-background:new 0 0 100 100;" xml:space="preserve">
<style type="text/css">
	.st0{fill:#FFFFFF;}
</style>
<g>
	<path class="st0" d="M58.87,27.42c-0.34-0.31-0.78-0.46-1.23-0.45c-0.46,0.02-0.88,0.23-1.19,0.56L22.67,64.75
		c-0.01,0.01-0.01,0.02-0.01,0.02c-0.26,0.24-0.46,0.54-0.54,0.9l-4.45,19.94c-0.12,0.55,0.04,1.11,0.42,1.52
		c-1.74,2.01-1.39,3.83-1.01,4.76c2.52,6.09,19.24,7,28.98,7c10.37,0,17.87-3.07,18.68-7.63c0.24-1.32,0.12-4.62-5.92-6.83
		c-0.78-0.29-2.04-0.9-1.75-1.75c0.67-1.94,5.85-4.46,12.95-2.16c0.91,0.29,1.87-0.2,2.16-1.1s-0.2-1.87-1.1-2.16
		c-8.36-2.71-15.8,0.09-17.25,4.3c-0.66,1.92-0.06,4.66,3.81,6.08c2.43,0.89,3.89,2.07,3.72,3.02c-0.3,1.67-5.09,4.8-15.31,4.8
		c-18.82,0-25.11-3.2-25.82-4.89c-0.06-0.13-0.23-0.56,0.64-1.43c0.53-0.53,0.63-1.32,0.32-1.96l18.13-5.77
		c0.31-0.1,0.58-0.29,0.79-0.54c0.04-0.03,0.08-0.05,0.11-0.09L74,43.58c0.64-0.7,0.59-1.77-0.11-2.41L58.87,27.42z M21.65,83.45
		l3.16-14.15l10.65,9.75L21.65,83.45z"/>
	<path class="st0" d="M82.45,79.71c-0.48-0.24-0.99-0.46-1.52-0.69c-0.87-0.37-1.88,0.04-2.24,0.91c-0.37,0.87,0.04,1.88,0.91,2.24
		c0.47,0.2,0.93,0.4,1.35,0.61c0.24,0.12,0.5,0.17,0.75,0.17c0.63,0,1.24-0.36,1.54-0.97C83.65,81.15,83.3,80.12,82.45,79.71z"/>
</g>
</svg>
