<?xml version="1.0" encoding="utf-8"?>
<!-- Generator: Adobe Illustrator 25.0.1, SVG Export Plug-In . SVG Version: 6.00 Build 0)  -->
<svg version="1.1" id="Calque_1" xmlns="http://www.w3.org/2000/svg" xmlns:xlink="http://www.w3.org/1999/xlink" x="0px" y="0px"
	 viewBox="0 0 100 100" style="enable-background:new 0 0 100 100;" xml:space="preserve">
<style type="text/css">
	.st0{fill:#FFFFFF;}
</style>
<g>
	<path class="st0" d="M87.84,64.56L87.84,64.56c-1.89-3.92-4.02-8.35-16.53-9.61c-8.1-0.81-15.53-0.91-20.37-0.26
		C36.08,56.7,27.02,66.48,26.93,66.58c-0.26,0.29-0.35,0.69-0.22,1.05c0.12,0.37,0.44,0.64,0.81,0.7c2.93,0.52,6.94,0.78,12.25,0.78
		c8.42,0,18.88-0.67,28.15-1.26c7.54-0.48,14.67-0.94,19.39-0.94c0.37,0,0.71-0.19,0.9-0.5s0.21-0.69,0.04-1.03
		C88.11,65.12,87.98,64.84,87.84,64.56z M67.81,66.43L67.81,66.43L67.81,66.43L67.81,66.43l-0.08-0.67
		c-13.57,0.87-28.86,1.84-37.72,0.81c3.11-2.76,10.56-8.33,21.2-9.77c4.7-0.64,11.93-0.54,19.88,0.27
		c10.62,1.07,12.92,4.53,14.52,7.77c-4.7,0.09-11.1,0.49-17.84,0.93L67.81,66.43z"/>
	<path class="st0" d="M88.8,53.87L88.8,53.87c-0.03-0.03-0.07-0.06-0.1-0.09c0.06-0.42-0.06-0.86-0.32-1.2
		c-0.29-0.39-0.75-0.62-1.24-0.66c-24.36-1.32-34.3-0.69-38.35,0.07c-6.2,1.16-11.05,2.64-14.82,4.55c-5.7,2.89-10.23,6.6-11.4,7.6
		c-2.77,0.42-17.04,3.2-19.32,6.58c-0.01,0.02-0.02,0.03-0.03,0.04L3.13,70.9C2.1,73,1.99,74,1.83,75.89
		c-0.02,0.31-0.22,0.83-0.41,1.34c-0.37,0.98-0.84,2.21-0.58,3.34c0.81,3.52,1.92,6.9,4.5,7.65c0.1,0.03,0.2,0.04,0.31,0.04
		l4.77-0.01c0.66,6.31,5.99,11.18,12.4,11.18c6.44,0,11.76-4.87,12.4-11.21l33.61-0.06c0.61,6.37,5.95,11.25,12.4,11.25
		c6.71,0,12.21-5.33,12.47-11.98l4.46-1.57c0.38-0.13,0.66-0.48,0.7-0.88l0.48-4.48l0.01-3.46C99.35,70.65,94.03,58.95,88.8,53.87z
		 M81.23,97.31c-5.71,0-10.36-4.65-10.36-10.36s4.65-10.36,10.36-10.36s10.36,4.65,10.36,10.36S86.95,97.31,81.23,97.31z
		 M81.23,74.47c-6.53,0-11.98,5.14-12.44,11.59l-33.53,0.06c-0.44-6.48-5.89-11.64-12.45-11.64c-6.58,0-12.04,5.18-12.45,11.68
		l-4.55,0.01C4.15,85.5,3.28,81.73,2.9,80.1c-0.11-0.49,0.22-1.39,0.5-2.12c0.11-0.29,0.21-0.57,0.3-0.84
		c0.19,0.29,0.52,0.48,0.93,0.48l0,0c4.5-0.15,9.27-3.76,10.85-6.19c0.21-0.33,0.22-0.76,0.03-1.1c-0.21-0.36-0.61-0.58-0.97-0.52
		l-6.57,0.32c4.34-1.78,11.96-3.49,15.2-3.93c0.21-0.02,0.41-0.11,0.57-0.26c0.2-0.18,5.06-4.41,11.2-7.51
		c3.59-1.82,8.25-3.25,14.26-4.36c5.53-1.04,18.54-1.07,37.38-0.06c0.03,0.7,0.45,1.2,0.86,1.47c2.03,2.01,4.22,5.3,6.08,9.12
		c-1.43,0.01-2.34,0.11-2.92,0.69c-0.3,0.3-0.46,0.7-0.46,1.13c0,1.65,1.56,3.59,4.96,3.93l0.12,0.01c0.22,0,0.44-0.07,0.6-0.19
		c0.91,2.69,1.42,5.09,1.42,6.88l-0.01,3.37l-0.4,3.67l-3.23,1.15C92.74,79.13,87.47,74.47,81.23,74.47z M22.81,97.31
		c-5.71,0-10.36-4.65-10.36-10.36s4.65-10.36,10.36-10.36s10.36,4.65,10.36,10.36S28.52,97.31,22.81,97.31z M12.11,72.04
		c-2.01,1.77-5.04,3.39-7.54,3.47c-0.21,0.01-0.42,0.08-0.59,0.2c0.11-1.31,0.22-2.03,0.79-3.31L12.11,72.04z M92.34,66.77
		c0.52-0.07,1.49-0.06,2.15-0.06c0.22,0.5,0.42,1,0.62,1.49C93.49,68.01,92.61,67.34,92.34,66.77z"/>
</g>
</svg>
