<?xml version="1.0" encoding="utf-8"?>
<!-- Generator: Adobe Illustrator 25.0.1, SVG Export Plug-In . SVG Version: 6.00 Build 0)  -->
<svg version="1.1" id="Calque_1" xmlns="http://www.w3.org/2000/svg" xmlns:xlink="http://www.w3.org/1999/xlink" x="0px" y="0px"
	 viewBox="0 0 100 100" style="enable-background:new 0 0 100 100;" xml:space="preserve">
<style type="text/css">
	.st0{fill:#FFFFFF;}
</style>
<g>
	<path class="st0" d="M72.31,66.27l-2.12-13.35l-7.84-0.26c-0.67-1.34-1.44-2.63-2.33-3.86l3.3-7.3l-10.77-7.91l-5.79,5.46
		c-1.46-0.49-2.95-0.83-4.45-1.06l-2.75-7.57l-13.1,2.16l-0.31,8.08c-1.29,0.66-2.53,1.43-3.71,2.3l-7.2-3.38L7.47,50.57l5.28,5.81
		c-0.5,1.55-0.86,3.1-1.09,4.68l-7.3,2.75l2.12,13.35l7.7,0.3c0.7,1.44,1.53,2.85,2.5,4.16l-3.15,7.08l10.77,7.91l5.57-5.31
		c1.49,0.5,3.02,0.84,4.55,1.07l2.69,7.27l13.12-2.16l0.26-7.75c1.44-0.74,2.85-1.62,4.16-2.63l6.92,3.19l7.77-10.97l-5.32-5.77
		c0.47-1.47,0.8-2.98,1.02-4.49L72.31,66.27z M54.01,76.64c-6.24,8.81-18.31,10.8-26.97,4.45c-8.64-6.35-10.6-18.64-4.36-27.45
		c6.24-8.81,18.31-10.8,26.97-4.45C58.3,55.54,60.25,67.84,54.01,76.64z"/>
	<path class="st0" d="M92.47,37.57l3.02-5.04L93,28.51l-5.75,0.33c-3.05-2.37-6.94-3.4-10.74-2.8l-5.48-3.29L67,25.23l0.37,6.47
		c-2.17,3.05-3.02,6.87-2.35,10.56l-3.15,5.48l2.49,4.02l6.48-0.5c3.02,2.07,6.75,2.86,10.36,2.2l5.02,2.88l4.02-2.49l-0.43-5.71
		C92.09,45.12,93.07,41.3,92.47,37.57z M82.67,46.18c-3.53,2.19-8.17,1.09-10.36-2.45c-2.19-3.53-1.09-8.17,2.45-10.36
		s8.17-1.09,10.36,2.45S86.2,43.99,82.67,46.18z"/>
</g>
</svg>
