<?xml version="1.0" encoding="utf-8"?>
<!-- Generator: Adobe Illustrator 25.0.1, SVG Export Plug-In . SVG Version: 6.00 Build 0)  -->
<svg version="1.1" id="Calque_1" xmlns="http://www.w3.org/2000/svg" xmlns:xlink="http://www.w3.org/1999/xlink" x="0px" y="0px"
	 viewBox="0 0 309 460" style="enable-background:new 0 0 309 460;" xml:space="preserve">
<style type="text/css">
	.st0{fill:#FFFFFF;}
</style>
<path class="st0" d="M301.93,274.99c-75.15-28.65-90.55,11.99-192.2-8.86c-29.71,11.05-57.55,38.79-66.77,50.62
	c101.65,20.85,116.99-19.65,192.14,9C244.32,313.91,272.21,286.03,301.93,274.99z"/>
<path class="st0" d="M227.43,202.48c0-15.86-13.08-28.72-29.21-28.72c-0.82,0-1.63,0.06-2.43,0.12c0.04-0.61,0.09-1.22,0.09-1.84
	c0-15.86-13.08-28.72-29.21-28.72s-29.21,12.86-29.21,28.72c0,4.81,1.22,9.33,3.34,13.32c-2.02-0.43-4.11-0.68-6.26-0.68
	c-16.13,0-29.21,12.86-29.21,28.72c0,15.86,13.08,28.72,29.21,28.72c2.58,0,5.07-0.36,7.46-0.98c3.95,11.26,14.8,19.36,27.59,19.36
	c16.13,0,29.21-12.86,29.21-28.72c0-0.2-0.03-0.4-0.03-0.6C214.65,230.88,227.43,218.17,227.43,202.48z"/>
<path class="st0" d="M172,129c22.99-14.35,29.79-44.31,15.2-66.91c-10.24-15.85-28.28-23.84-46.08-22.27
	c-1.11-4.8-3.01-9.51-5.85-13.9C121.93,5.26,94.09-0.85,73.09,12.27c-18.27,11.41-25.33,33.59-18.1,52.77
	C49.8,66.08,44.71,68,39.97,70.96c-20.84,13.01-27.01,40.17-13.77,60.66s40.85,26.56,61.69,13.54c10.11-6.31,16.74-15.97,19.4-26.57
	C122.83,137.48,150.64,142.34,172,129z"/>
<path class="st0" d="M218.73,459.56c20.55-33.05,22.98-55.16,13.47-88.67c-14.94,24-8.15,29.43-22.7,54.31
	c8.25-23.47-4.21-56.22-16.7-82.84c-12.12,25.97-6.79,41.66-26.74,76.25c8.64-27.45-3.79-64-12.03-97.54
	c-1.82,24.7-28.02,69.63-25.97,92.27c-2.16-7.72-1.38-11.67-33.53-31.59c-2.08,14.64-2.16,47.35,31.08,77.8h93.12V459.56z"/>
</svg>
