<?xml version="1.0" encoding="utf-8"?>
<!-- Generator: Adobe Illustrator 25.0.1, SVG Export Plug-In . SVG Version: 6.00 Build 0)  -->
<svg version="1.1" id="Calque_1" xmlns="http://www.w3.org/2000/svg" xmlns:xlink="http://www.w3.org/1999/xlink" x="0px" y="0px"
	 viewBox="0 0 30.87 50" style="enable-background:new 0 0 30.87 50;" xml:space="preserve">
<style type="text/css">
	.st0{fill:#FFFFFF;}
</style>
<g>
	<g>
		<path class="st0" d="M5.54,38.8c0.64-0.48,1.45-0.88,2.48-1.21c0.16-0.05,0.34-0.02,0.47,0.07l2.94,2.05
			c0.13,0.09,0.22,0.24,0.23,0.41c0.22,3.27-1.55,4.13-3.27,4.96c-1.4,0.68-2.85,1.39-3.63,3.47c-0.09,0.24-0.33,0.38-0.58,0.35
			c-0.25-0.03-0.44-0.23-0.47-0.48C3.22,43.44,3.25,40.55,5.54,38.8z"/>
	</g>
	<g>
		<path class="st0" d="M11.41,32.82c0.18-0.14,0.44-0.15,0.64-0.01l2.89,2.03c0.12,0.08,0.2,0.21,0.22,0.35
			c0.02,0.14-0.01,0.29-0.09,0.41l-2.64,3.72c-0.08,0.12-0.21,0.2-0.36,0.22c-0.14,0.02-0.29-0.01-0.41-0.1l-2.88-2.11
			c-0.24-0.18-0.29-0.51-0.12-0.76l2.64-3.64C11.34,32.89,11.37,32.85,11.41,32.82z"/>
	</g>
	<g>
		<path class="st0" d="M28.98,9.95c0.35-0.26,0.82-0.29,1.18-0.04c0.75,0.53-0.04,1.75-0.33,2.21c0,0,0,0,0,0
			c-0.09,0.14-9.13,14.04-13.95,22.2c-0.08,0.13-0.2,0.22-0.35,0.25c-0.15,0.03-0.3,0-0.43-0.09l-2.84-1.98
			c-0.12-0.08-0.2-0.22-0.23-0.36c-0.02-0.15,0.02-0.3,0.11-0.41l16.63-21.58C28.84,10.07,28.91,10.01,28.98,9.95z"/>
	</g>
</g>
</svg>
