<?xml version="1.0" encoding="utf-8"?>
<!-- Generator: Adobe Illustrator 25.0.1, SVG Export Plug-In . SVG Version: 6.00 Build 0)  -->
<svg version="1.1" id="Calque_1" xmlns="http://www.w3.org/2000/svg" xmlns:xlink="http://www.w3.org/1999/xlink" x="0px" y="0px"
	 viewBox="0 0 100 100" style="enable-background:new 0 0 100 100;" xml:space="preserve">
<style type="text/css">
	.st0{fill:#FFFFFF;}
</style>
<path class="st0" d="M92.25,24.76l4.41,7.11l-5.59-1.19L92.25,24.76z M70.68,99.92H2.18L2.16,50.78l1.65-8.22h26.71l1.62,8.22
	c0.08,0.38,0.41,0.65,0.8,0.65h37.73V99.92z M72.3,84.7V50.61c0-0.44-0.36-0.82-0.82-0.82H41.34l1.26-16.73l24.9,2.04l0.6,0.74
	l0.11,8.93c0,0.44,0.34,0.78,0.78,0.8l7.41,0.23l0.31,0.38l-2.89,38.65L72.3,84.7z M69.75,37.83l5.3,6.33l-5.22-0.16L69.75,37.83z
	 M76.05,76.04l2.31-30.07l-9.84-12.15l-16.12-1.49l1.36-9.17l24.54,3.66l-1.32,8.78c-0.1,0.6,0.31,1.16,0.92,1.28l8.91,1.57
	l-5.77,38.47L76.05,76.04z M78.92,35.23l0.85-5.97l4.77,6.88L78.92,35.23z M91.09,72.42l-7.42-1.62l4.82-32.68l-9.17-12.64
	l-14.06-2.24l1.24-6.02l24.3,5.07L89,31.42c-0.08,0.44,0.2,0.87,0.64,0.96l9.12,2.06L91.09,72.42z"/>
</svg>
