<?xml version="1.0" encoding="utf-8"?>
<!-- Generator: Adobe Illustrator 25.0.1, SVG Export Plug-In . SVG Version: 6.00 Build 0)  -->
<svg version="1.1" id="Calque_1" xmlns="http://www.w3.org/2000/svg" xmlns:xlink="http://www.w3.org/1999/xlink" x="0px" y="0px"
	 viewBox="0 0 100 100" style="enable-background:new 0 0 100 100;" xml:space="preserve">
<style type="text/css">
	.st0{fill:#FFFFFF;}
</style>
<path class="st0" d="M48.1,92.37c-10.6,0-20.67-5.58-24.52-13.57c-0.17-0.36-0.27-0.74-0.27-1.15V59.89l28.95,15.45l20.77-12.36
	v14.68c0,0.46-0.13,0.91-0.35,1.31C67.94,87.23,58.53,92.37,48.1,92.37z M85.94,92.77l-5.66,1.01l-0.6-3.4l-1.59,6.66l-5.58-1.36
	l4.74-19.59V58.1L52.94,72.58L1.63,45.18l46-27.4l51.3,27.4l-15.94,9.5v21.48L85.94,92.77z"/>
</svg>
