<?xml version="1.0" encoding="utf-8"?>
<!-- Generator: Adobe Illustrator 25.0.1, SVG Export Plug-In . SVG Version: 6.00 Build 0)  -->
<svg version="1.1" id="Calque_1" xmlns="http://www.w3.org/2000/svg" xmlns:xlink="http://www.w3.org/1999/xlink" x="0px" y="0px"
	 viewBox="0 0 53.22 51.17" style="enable-background:new 0 0 53.22 51.17;" xml:space="preserve">
<style type="text/css">
	.st0{fill:#FFFFFF;}
</style>
<g>
	<path class="st0" d="M4.51,45.05c0.95-2.15,1.92-4.58,2.65-6.46c-4.1-3.05-6.35-6.94-6.35-11.02c0-9.25,11.62-16.79,25.9-16.79
		S52.6,18.32,52.6,27.57S40.98,44.36,26.71,44.36c-3.88,0-7.64-0.55-11.16-1.64c-2.7,1.19-6.15,2.51-9.76,3.73l-2.24,0.76
		L4.51,45.05z M15.78,40.64c3.43,1.1,7.09,1.66,10.9,1.66c13.13,0,23.82-6.61,23.82-14.73S39.82,12.85,26.69,12.85
		c-13.14,0-23.82,6.6-23.82,14.72c0,3.59,2.18,7.07,6.12,9.79l0.67,0.47l-0.29,0.76c-0.53,1.4-1.26,3.27-2.04,5.13
		c2.89-1.03,5.57-2.09,7.72-3.04l0.36-0.17L15.78,40.64z"/>
</g>
<g>
	<path class="st0" d="M16.46,29c0,0.23,0.04,0.46,0.08,0.66c0.35,1.27,1.41,2.14,2.74,2.14c1.91,0,3.05-1.56,3.05-3.86
		c0-2.01-1.04-3.75-2.99-3.75c-1.25,0-2.41,0.85-2.78,2.24c-0.04,0.21-0.1,0.46-0.1,0.75C16.46,27.18,16.46,29,16.46,29z
		 M14.57,33.04c0.04-0.69,0.08-1.7,0.08-2.59V18.27h1.81v6.32h0.04c0.64-1.12,1.81-1.85,3.44-1.85c2.49,0,4.27,2.08,4.25,5.14
		c0,3.6-2.26,5.39-4.52,5.39c-1.45,0-2.62-0.56-3.36-1.89h-0.06l-0.08,1.66C16.16,33.04,14.57,33.04,14.57,33.04z"/>
</g>
<g>
	<rect x="26.49" y="18.27" class="st0" width="1.83" height="14.76"/>
</g>
<g>
	<g>
		<path class="st0" d="M36.7,27.9c-1.99-0.04-4.27,0.31-4.27,2.26c0,1.18,0.79,1.74,1.72,1.74c1.31,0,2.14-0.83,2.43-1.68
			c0.06-0.19,0.1-0.39,0.1-0.58V27.9H36.7z M36.97,33.04l-0.15-1.27h-0.06c-0.56,0.79-1.64,1.49-3.08,1.49
			c-2.03,0-3.07-1.43-3.07-2.89c0-2.43,2.16-3.77,6.05-3.75v-0.21c0-0.83-0.23-2.32-2.28-2.32c-0.93,0-1.91,0.29-2.62,0.75
			l-0.43-1.21c0.83-0.54,2.03-0.89,3.31-0.89c3.08,0,3.83,2.1,3.83,4.11v3.77c0,0.87,0.04,1.72,0.17,2.41L36.97,33.04L36.97,33.04z"
			/>
	</g>
</g>
</svg>
