<?xml version="1.0" encoding="utf-8"?>
<!-- Generator: Adobe Illustrator 25.0.1, SVG Export Plug-In . SVG Version: 6.00 Build 0)  -->
<svg version="1.1" id="Calque_1" xmlns="http://www.w3.org/2000/svg" xmlns:xlink="http://www.w3.org/1999/xlink" x="0px" y="0px"
	 viewBox="0 0 199.79 50.45" style="enable-background:new 0 0 199.79 50.45;" xml:space="preserve">
<style type="text/css">
	.st0{fill:#FFFFFF;}
</style>
<g>
	<g>
		<path class="st0" d="M64.88,37.56c0.75-0.6,1.72-1.1,2.95-1.53c0.19-0.07,0.4-0.04,0.57,0.07l3.61,2.39
			c0.16,0.11,0.27,0.29,0.29,0.48c0.37,3.93-1.75,5.02-3.79,6.08c-1.67,0.86-3.4,1.76-4.27,4.29c-0.1,0.29-0.38,0.47-0.69,0.44
			c-0.3-0.03-0.54-0.27-0.58-0.57C62.23,43.22,62.17,39.73,64.88,37.56z"/>
	</g>
	<g>
		<path class="st0" d="M71.78,30.17c0.22-0.17,0.53-0.2,0.77-0.03l3.54,2.36c0.14,0.1,0.25,0.25,0.28,0.42
			c0.03,0.17,0,0.35-0.1,0.49l-3.08,4.56c-0.1,0.14-0.25,0.24-0.42,0.28c-0.17,0.03-0.35-0.01-0.49-0.11l-3.54-2.46
			c-0.3-0.21-0.37-0.61-0.17-0.91l3.07-4.46C71.69,30.26,71.74,30.21,71.78,30.17z"/>
	</g>
	<g>
		<path class="st0" d="M92.29,2.08C92.7,1.75,93.27,1.71,93.71,2c0.92,0.61,0.01,2.11-0.34,2.68c0,0,0,0,0,0
			c-0.11,0.17-10.59,17.2-16.16,27.17c-0.09,0.16-0.24,0.27-0.42,0.32c-0.18,0.04-0.36,0.01-0.51-0.09l-3.48-2.31
			c-0.15-0.1-0.25-0.25-0.28-0.43c-0.03-0.18,0.01-0.36,0.12-0.5l19.4-26.5C92.12,2.24,92.2,2.15,92.29,2.08z"/>
	</g>
</g>
<g>
	<path class="st0" d="M161.68,26.46c-1.32-7.68-8.73-12.84-16.53-11.5c-1.14,0.2-2.22,0.54-3.25,0.98c-0.91-2-1.65-3.68-1.95-4.49
		c-0.08-0.21-0.25-0.36-0.47-0.41c-0.22-0.05-0.44,0.01-0.6,0.16c-1.98,1.88-3.55,3.67-4.84,5.56c-0.75,0.14-1.48,0.29-2.22,0.43
		c-5.65,1.11-10.98,2.15-16.85,2.23c-0.03,0-0.06,0.01-0.09,0.02c0.41-2.42,0.5-4.95,0.15-7.7c-0.05-0.36-0.39-0.62-0.74-0.57
		c-0.36,0.05-0.62,0.38-0.57,0.74c0.48,3.75,0.09,7.12-0.85,10.34c-2.22-0.73-4.61-0.92-6.99-0.51c-3.77,0.65-7.07,2.71-9.28,5.8
		c-2.22,3.09-3.08,6.84-2.44,10.57c1.18,6.86,7.22,11.71,14.05,11.71c0.82,0,1.64-0.07,2.47-0.21c3.77-0.65,7.07-2.71,9.28-5.8
		c2.22-3.09,3.08-6.84,2.44-10.57c-0.64-3.72-2.72-6.97-5.84-9.14c-0.78-0.54-1.59-1-2.44-1.37c0.2-0.68,0.37-1.38,0.52-2.08
		c0.03,0.02,0.05,0.04,0.08,0.05c5.9,2.48,11.83,10.44,13.22,13.83c0.1,0.25,0.35,0.41,0.61,0.41c0.02,0,0.04,0,0.06,0
		c0.14-0.01,0.28-0.07,0.38-0.17c0.09,0.01,0.17,0,0.26-0.02l4.69-1.37c1.92,5.76,7.4,9.66,13.52,9.66c0.82,0,1.64-0.07,2.48-0.21
		C157.74,41.48,163,34.14,161.68,26.46z M128.31,32.28c-1.99-3.51-6.19-8.77-10.8-11.63c5.01-0.29,9.67-1.2,14.57-2.16
		c0.33-0.06,0.66-0.13,0.99-0.19c-1.74,2.98-2.92,6.35-4.02,10.77c-0.39-0.02-0.79-0.01-1.18,0.04c-0.36,0.05-0.62,0.38-0.57,0.74
		c0.05,0.36,0.39,0.62,0.74,0.57c0.23-0.03,0.46-0.03,0.68-0.02C128.59,31.01,128.45,31.63,128.31,32.28z M129.44,33.32
		c0.2-0.96,0.41-1.87,0.61-2.75c0.58,0.16,1.14,0.41,1.63,0.77c0.12,0.08,0.25,0.13,0.39,0.13c0.21,0,0.41-0.09,0.54-0.27
		c0.21-0.3,0.15-0.71-0.15-0.92c-0.63-0.46-1.34-0.79-2.09-0.99c1.19-4.78,2.49-8.27,4.53-11.4c0.14-0.09,0.23-0.24,0.27-0.4
		c1.08-1.59,2.36-3.09,3.93-4.64c0.39,0.93,0.96,2.22,1.63,3.67c-5.22,2.84-8.33,8.71-7.28,14.81c0.05,0.26,0.11,0.52,0.17,0.77
		L129.44,33.32z"/>
	<path class="st0" d="M133.74,10.97c0.21,0,0.44-0.02,0.69-0.07c0.71-0.13,1.43-0.28,2.14-0.43l5.26-1.12
		c0.31-0.07,1.13-0.24,1.39-0.98c0.14-0.38,0.05-0.76,0-0.96c-0.13-0.55-0.31-1.08-0.47-1.52c-0.29-0.81-0.82-1.34-1.4-1.42
		c-0.43-0.06-0.83,0.13-1.09,0.52c-0.33,0.48-0.88,0.85-1.62,1.11c-1.52,0.53-3.07,1.04-4.61,1.51c-0.43,0.13-0.95,0.29-1.37,0.68
		c-0.49,0.46-0.78,1.27-0.37,1.95C132.56,10.73,133.05,10.97,133.74,10.97z"/>
	<path class="st0" d="M110.49,12.41c0.08,0.03,0.16,0.05,0.25,0.05c0.26,0,0.51-0.16,0.61-0.41c0.62-1.55,2.01-2.73,3.64-3.1
		c0.15-0.03,0.24-0.04,0.29-0.04c0.04,0,0.06,0.01,0.06,0c0.02,0.03,0.06,0.13,0.07,0.46c0.01,0.36,0.31,0.65,0.69,0.63
		c0.36-0.01,0.65-0.32,0.63-0.69c-0.01-0.34-0.04-1.04-0.59-1.45c-0.54-0.41-1.23-0.26-1.45-0.21c-2.04,0.46-3.79,1.95-4.57,3.89
		C109.99,11.89,110.15,12.28,110.49,12.41z"/>
	<path class="st0" d="M127.37,37.02c-0.86-0.09-1.7,0.05-2.44,0.18c-0.36,0.06-0.6,0.4-0.54,0.76c0.06,0.36,0.4,0.6,0.76,0.54
		c0.7-0.11,1.42-0.23,2.1-0.16c0.67,0.07,1.24,0.33,1.56,0.73c0.13,0.16,0.32,0.24,0.51,0.24c0.15,0,0.29-0.05,0.42-0.15
		c0.28-0.23,0.33-0.65,0.09-0.93C129.27,37.55,128.4,37.12,127.37,37.02z"/>
</g>
<path class="st0" d="M192.13,14.36c-0.4-0.27-0.74-0.51-0.97-0.73c-1.25-1.16-2.07-2.25-2.49-3.29c-0.1-0.39-0.2-0.78-0.31-1.19
	c-0.16-0.59-0.74-0.96-1.34-0.84c-0.6,0.12-1,0.68-0.91,1.29c0.07,0.48,0.19,0.96,0.37,1.44c1.71,6.62,2.32,10.38,2.92,14.02
	c0.47,2.86,0.95,5.79,1.94,10.09c-0.78-0.38-1.63-0.65-2.53-0.76c-2.8-0.32-8.49,2.25-10.45,5.34c-0.95,1.49-1.01,3.06-0.17,4.41
	c0.76,1.23,2.24,1.85,4.39,1.85c0.89,0,1.79-0.05,2.74-0.16c1.61-0.18,9.35-2.17,9.67-5.87c0.06-0.69-0.25-1.36-0.59-1.98
	c-1.56-6.17-2.16-9.78-2.73-13.28c-0.43-2.62-0.87-5.31-1.71-9.06c0.27,0.21,0.57,0.42,0.87,0.63c1.68,1.16,3.59,2.48,3.53,6.24
	c-0.01,0.4-0.17,0.62-0.31,0.73c-0.14,0.11-0.26,0.13-0.27,0.14c-0.55-0.31-1.26-0.13-1.57,0.43c-0.32,0.55-0.13,1.26,0.43,1.57
	c0.72,0.41,1.67,0.39,2.47-0.07c0.96-0.55,1.54-1.58,1.56-2.76C196.74,17.53,193.85,15.54,192.13,14.36z"/>
<path class="st0" d="M70.35,12.2c-0.08-1.26-0.23-3.23-1.15-4.19c-0.94-0.98-2.83-0.6-4.06-0.56c-1.7,0.06-3.39,0.18-5.07,0.39
	C58.88,7.98,57.19,8,56.34,9c-0.77,0.9-0.26,1.67,0.39,2.36c-6.17,1.77-12.24,4.1-18.17,6.63c-5.52-3.65-14.11-3.72-19.11,0.94
	c-1.48,1.38-2.33,3.08-3.28,4.82c-1.08,1.97-2.4,3.04-4.4,4c-1.52,0.73-3.11,1.52-4.02,3c-0.89,1.45-1.01,3.24-0.59,4.86
	c0.92,3.52,4.18,6.69,7.02,8.79c2.86,2.12,6.35,3.16,9.84,2.14c3.09-0.9,5.68-3.07,7.6-5.6c0.51-0.67,1-1.92,1.66-2.39
	c0.72-0.51,2.19-0.17,3.03-0.16c1.73,0.01,3.48-0.09,5.14-0.57c2.99-0.87,5.37-3.31,5.57-6.51c0.21-3.36-1.73-6.49-3.67-9.1
	c4.48-2.09,8.96-4.18,13.44-6.28c0.51-0.24,1.02-0.47,1.52-0.71c0,0.13,0,0.25,0,0.38c-0.01,0.59,0.42,0.97,1.01,0.93
	c1.67-0.12,3.3-0.47,4.92-0.87c1.51-0.38,3.14-0.58,4.62-1.06C70,14.2,70.42,13.37,70.35,12.2z M34.26,30.29
	c-1.72,1.11-4,1.2-5.91,0.56c-0.99-0.33-2.02-0.88-2.64-1.75c-0.65-0.92-0.74-2.03-0.19-3.01c0.11-0.2,0.32-0.31,0.54-0.34
	c0.92-1.57,2.59-2.39,4.41-2.35c1.67,0.03,3.53,0.71,4.6,2.03c0.55,0.68,0.9,1.57,0.79,2.45C35.74,28.89,35.1,29.75,34.26,30.29z"/>
</svg>
