<?xml version="1.0" encoding="utf-8"?>
<!-- Generator: Adobe Illustrator 25.0.1, SVG Export Plug-In . SVG Version: 6.00 Build 0)  -->
<svg version="1.1" id="Calque_1" xmlns="http://www.w3.org/2000/svg" xmlns:xlink="http://www.w3.org/1999/xlink" x="0px" y="0px"
	 viewBox="0 0 30.87 50" style="enable-background:new 0 0 30.87 50;" xml:space="preserve">
<style type="text/css">
	.st0{fill:#FFFFFF;}
</style>
<path class="st0" d="M20.89,14.01c-0.43-0.37-0.8-0.69-1.04-0.97c-1.3-1.51-2.11-2.89-2.46-4.15c-0.07-0.46-0.13-0.94-0.2-1.42
	c-0.1-0.71-0.74-1.22-1.45-1.15c-0.71,0.06-1.25,0.66-1.23,1.38c0.01,0.57,0.09,1.14,0.24,1.72c1.11,7.92,1.33,12.37,1.54,16.68
	c0.17,3.38,0.34,6.86,0.93,11.98c-0.85-0.55-1.8-0.97-2.84-1.22c-3.22-0.74-10.17,1.5-12.85,4.83c-1.3,1.61-1.57,3.42-0.78,5.1
	c0.73,1.53,2.36,2.45,4.86,2.73c1.03,0.11,2.09,0.17,3.2,0.17c1.9,0,3.97-0.17,6.4-0.51c3.4-0.48,5.49-2.37,5.61-5.04
	c0.04-0.81-0.12-1.61-0.42-2.38c-1-7.37-1.22-11.66-1.42-15.8c-0.15-3.11-0.31-6.29-0.79-10.76c0.28,0.28,0.6,0.56,0.93,0.85
	c1.8,1.57,3.85,3.35,3.28,7.72c-0.06,0.46-0.28,0.7-0.45,0.81c-0.17,0.11-0.32,0.12-0.34,0.12c-0.6-0.44-1.44-0.31-1.88,0.29
	c-0.44,0.6-0.31,1.44,0.29,1.88c0.78,0.57,1.89,0.67,2.88,0.25c1.19-0.51,2-1.63,2.18-3C25.83,18.31,22.74,15.62,20.89,14.01z"/>
</svg>
