<?xml version="1.0" encoding="utf-8"?>
<!-- Generator: Adobe Illustrator 25.0.1, SVG Export Plug-In . SVG Version: 6.00 Build 0)  -->
<svg version="1.1" id="Calque_1" xmlns="http://www.w3.org/2000/svg" xmlns:xlink="http://www.w3.org/1999/xlink" x="0px" y="0px"
	 viewBox="0 0 100 100" style="enable-background:new 0 0 100 100;" xml:space="preserve">
<style type="text/css">
	.st0{fill:#FFD700;}
</style>
<path class="st0" d="M27.08,46.95l-12-6.28c-0.27-0.14-0.57-0.17-0.84-0.09c-0.26,0.08-0.48,0.28-0.58,0.54L1.73,69.95
	c0,0.01,0,0.01,0,0.02c-0.11,0.19-0.16,0.41-0.13,0.65l1.75,13.28c0.05,0.4,0.31,0.76,0.67,0.95c0.36,0.19,0.77,0.18,1.08-0.03
	l10.25-7c0.02-0.02,0.05-0.03,0.07-0.05c0.14-0.11,0.24-0.26,0.29-0.43c0.01-0.02,0.03-0.03,0.04-0.06l11.93-28.82
	C27.9,47.91,27.63,47.24,27.08,46.95z M5.25,81.9l-1.24-9.42l8.51,4.45L5.25,81.9z"/>
<path class="st0" d="M38.1,43.59v39.95c-0.02,0.04-0.06,0.07-0.08,0.11l-7.92,14.4c-0.46,0.83,0.25,1.5,1.58,1.48l55.8-0.66
	c1.33-0.02,2.79-0.71,3.24-1.54l7.96-14.39c0.04-0.07,0.06-0.15,0.08-0.22l0.05,0V43.59H38.1z M40.27,89.26l4.56-0.05l-1.62,2.94
	l-4.56,0.05L40.27,89.26z M69.86,88.9l-1.62,2.94l-4.56,0.05l1.62-2.94L69.86,88.9z M65.84,87.98l1.62-2.94l4.56-0.05l-1.62,2.94
	L65.84,87.98z M64.13,88l-4.56,0.05l1.62-2.94l4.56-0.05L64.13,88z M63.6,88.98l-1.62,2.94l-4.56,0.05l1.62-2.94L63.6,88.98z
	 M57.88,88.08l-4.56,0.05l1.62-2.94l4.56-0.05L57.88,88.08z M57.34,89.05l-1.62,2.94l-4.56,0.05l1.62-2.94L57.34,89.05z
	 M51.62,88.15l-4.56,0.05l1.62-2.94l4.56-0.05L51.62,88.15z M51.09,89.13l-1.62,2.94l-4.56,0.05l1.62-2.94L51.09,89.13z
	 M45.36,88.23l-4.56,0.05l1.62-2.94l4.56-0.05L45.36,88.23z M41.08,96.01l-4.56,0.05l1.62-2.94l4.56-0.05L41.08,96.01z M66.11,95.72
	l-3.23,0.04l-1.33,0.02l-18.77,0.22l1.62-2.94l18.77-0.22l1.33-0.02l3.23-0.04L66.11,95.72z M72.37,95.64l-4.56,0.05l1.62-2.94
	l4.56-0.05L72.37,95.64z M69.94,91.82l1.62-2.94l4.56-0.05l-1.62,2.94L69.94,91.82z M84.28,88.71l-1.62,2.94l-4.56,0.05l1.62-2.94
	L84.28,88.71z M80.25,87.81l1.62-2.94l4.56-0.05l-1.62,2.94L80.25,87.81z M76.65,87.86l-4.56,0.05l1.62-2.94l4.56-0.05L76.65,87.86z
	 M75.97,95.6l1.62-2.94l4.56-0.05l-1.62,2.94L75.97,95.6z M86.35,95.48l-4.56,0.05l1.62-2.94l4.56-0.05L86.35,95.48z M88.49,91.58
	l-4.56,0.05l1.62-2.94l4.56-0.05L88.49,91.58z M90.63,87.69l-4.56,0.05l1.62-2.94l4.56-0.05L90.63,87.69z M96.14,81.45l-48.48,0.58
	h-6.88V45.95h55.36V81.45z"/>
<g>
	<path class="st0" d="M84.76,51.82c-6.73-1.55-11.49,2.2-11.54,6.53c-0.02,1.98,1.07,4.6,4.23,5.48c1.98,0.55,3.33,1.52,3.43,2.47
		c0.18,1.69-2.56,5.4-10.01,6.76c-13.71,2.51-19.06,0.2-19.97-1.36c-0.07-0.13-0.3-0.52,0.12-1.49c0.33-0.75,0.07-1.81-0.58-2.38
		c-0.65-0.57-1.44-0.42-1.76,0.32c-1.06,2.42-0.31,4.33,0.23,5.26c3.29,5.65,15.68,4.32,22.78,3.02c7.55-1.38,12.29-5.4,11.79-9.99
		c-0.14-1.33-1.01-4.56-5.94-5.93c-0.64-0.18-1.7-0.61-1.69-1.49c0.02-2,3.2-5.16,8.92-3.85c0.73,0.17,1.31-0.45,1.31-1.37
		C86.07,52.87,85.48,51.98,84.76,51.82z"/>
</g>
<g>
	<path class="st0" d="M35.06,71.25c-6.2-1.4-10.55,2.07-10.58,6.05c-0.01,1.82,1,4.22,3.91,5.02c1.82,0.5,3.06,1.38,3.16,2.26
		c0.18,1.55-2.33,4.97-9.17,6.26C9.79,93.18,4.87,91.09,4.02,89.65c-0.07-0.12-0.28-0.48,0.11-1.37c0.3-0.69,0.06-1.67-0.54-2.19
		s-1.32-0.38-1.62,0.3c-0.96,2.23-0.27,3.99,0.23,4.84c3.05,5.18,14.43,3.91,20.95,2.68c6.93-1.3,11.27-5.01,10.79-9.23
		c-0.14-1.22-0.95-4.19-5.48-5.43c-0.59-0.16-1.57-0.55-1.56-1.36c0.01-1.83,2.92-4.76,8.18-3.57c0.67,0.15,1.2-0.42,1.2-1.26
		C36.27,72.21,35.72,71.4,35.06,71.25z"/>
</g>
</svg>
