<?xml version="1.0" encoding="utf-8"?>
<!-- Generator: Adobe Illustrator 25.0.1, SVG Export Plug-In . SVG Version: 6.00 Build 0)  -->
<svg version="1.1" id="Calque_1" xmlns="http://www.w3.org/2000/svg" xmlns:xlink="http://www.w3.org/1999/xlink" x="0px" y="0px"
	 viewBox="0 0 100 100" style="enable-background:new 0 0 100 100;" xml:space="preserve">
<style type="text/css">
	.st0{fill:#FFFFFF;}
</style>
<g>
	<path class="st0" d="M71.72,49.93c0.42,0.15,0.83,0.31,1.23,0.48c0.22,0.1,0.44,0.12,0.63,0.08c0.5-0.1,0.89-0.58,0.97-1.31
		c0.11-1.01-0.44-2.1-1.21-2.44c-0.44-0.19-0.9-0.37-1.38-0.54c-0.79-0.28-1.47,0.33-1.53,1.35C70.36,48.59,70.94,49.66,71.72,49.93
		"/>
	<path class="st0" d="M52.6,73.09c8.18-1.57,13.31-6.12,12.77-11.34c-0.16-1.51-1.1-5.17-6.44-6.73c-0.69-0.2-1.84-0.69-1.83-1.69
		c0.02-2.27,3.46-5.86,9.66-4.36c0.79,0.19,1.42-0.51,1.41-1.56c0-1.05-0.64-2.05-1.42-2.24c-7.29-1.76-12.44,2.49-12.5,7.4
		c-0.02,2.24,1.16,5.22,4.58,6.21c2.15,0.62,3.61,1.72,3.72,2.81c0.2,1.91-2.78,6.13-10.84,7.67c-14.84,2.85-20.64,0.23-21.63-1.55
		c-0.08-0.15-0.33-0.59,0.13-1.69c0.35-0.85,0.07-2.06-0.63-2.7c-0.7-0.65-1.55-0.48-1.91,0.37c-1.15,2.74-0.34,4.92,0.25,5.97
		C31.49,76.08,44.91,74.56,52.6,73.09"/>
	<path class="st0" d="M80.37,79.13l-52.5,0.66h-7.45V41.67c0-1.55,1.2-2.81,2.69-2.81h54.57c1.48,0,2.69,1.26,2.69,2.81V79.13z
		 M78.54,83.12L72.35,94.9c-0.5,0.95-2.07,1.73-3.51,1.75l-53.73,0.67c-1.44,0.02-2.21-0.74-1.71-1.68l6.18-11.78
		c0.5-0.95,2.07-1.73,3.52-1.75l53.73-0.67C78.27,81.42,79.04,82.17,78.54,83.12 M20.21,36.17c-1.49,0-2.69,1.26-2.69,2.82v42.53
		c-0.02,0.04-0.06,0.07-0.08,0.1L8.86,97.96c-0.5,0.95,0.27,1.7,1.71,1.68L71,98.88c1.44-0.02,3.02-0.8,3.52-1.75l8.62-16.32
		c0.05-0.09,0.03-0.16,0.05-0.25h0.09V38.99c0-1.56-1.21-2.82-2.69-2.82H20.21z"/>
</g>
<polygon class="st0" points="71.23,82.93 69.47,86.27 74.41,86.2 76.16,82.87 "/>
<polygon class="st0" points="64.92,83.01 63.16,86.35 68.1,86.28 69.85,82.95 "/>
<polygon class="st0" points="68.91,87.35 67.16,90.68 72.09,90.62 73.84,87.28 "/>
<polygon class="st0" points="62.6,87.43 60.84,90.76 65.78,90.7 67.53,87.37 "/>
<polygon class="st0" points="66.59,91.77 64.84,95.1 69.77,95.04 71.52,91.7 "/>
<polygon class="st0" points="60.28,91.84 58.53,95.18 63.46,95.12 65.21,91.78 "/>
<polygon class="st0" points="22.2,83.54 20.45,86.88 25.38,86.82 27.13,83.48 "/>
<polygon class="st0" points="28.98,83.46 27.23,86.79 32.16,86.73 33.91,83.4 "/>
<polygon class="st0" points="35.75,83.37 34,86.71 38.93,86.65 40.69,83.31 "/>
<polygon class="st0" points="42.53,83.29 40.78,86.63 45.71,86.56 47.46,83.23 "/>
<polygon class="st0" points="49.31,83.2 47.55,86.54 52.49,86.48 54.24,83.14 "/>
<polygon class="st0" points="56.08,83.12 54.33,86.45 59.26,86.4 61.02,83.06 "/>
<polygon class="st0" points="19.87,87.98 18.12,91.32 23.05,91.26 24.8,87.92 "/>
<polygon class="st0" points="26.65,87.9 24.9,91.23 29.83,91.18 31.58,87.84 "/>
<polygon class="st0" points="33.42,87.81 31.67,91.15 36.6,91.09 38.36,87.75 "/>
<polygon class="st0" points="40.2,87.73 38.45,91.07 43.38,91 45.13,87.67 "/>
<polygon class="st0" points="46.97,87.64 45.22,90.98 50.16,90.92 51.91,87.58 "/>
<polygon class="st0" points="53.75,87.56 52,90.9 56.93,90.84 58.68,87.5 "/>
<polygon class="st0" points="17.57,92.38 15.81,95.71 20.75,95.65 22.5,92.32 "/>
<polygon class="st0" points="51.44,91.95 49.69,95.29 54.62,95.23 56.38,91.89 "/>
<polygon class="st0" points="46.11,92.02 44.67,92.04 24.34,92.29 22.59,95.63 42.92,95.37 44.36,95.36 47.85,95.31 49.6,91.97 "/>
</svg>
