<?xml version="1.0" encoding="utf-8"?>
<!-- Generator: Adobe Illustrator 25.0.1, SVG Export Plug-In . SVG Version: 6.00 Build 0)  -->
<svg version="1.1" id="Calque_1" xmlns="http://www.w3.org/2000/svg" xmlns:xlink="http://www.w3.org/1999/xlink" x="0px" y="0px"
	 viewBox="0 0 50 50" style="enable-background:new 0 0 50 50;" xml:space="preserve">
<style type="text/css">
	.st0{fill:#FFFFFF;}
</style>
<path class="st0" d="M42.57,22.56c-2-4.89-5.78-8.72-10.67-10.77c-4.88-2.05-10.28-2.09-15.19-0.1l2.01,4.93
	c3.59-1.45,7.53-1.43,11.1,0.07s6.34,4.3,7.8,7.87c3.01,7.38-0.57,15.82-7.98,18.82c-3.59,1.45-7.53,1.43-11.1-0.07
	c-2.05-0.86-3.83-2.17-5.26-3.79l6.98,0.8l0.55-5.3L4.73,33.29L3.77,49.36l5.34,0.32l0.38-6.4c1.92,2.11,4.27,3.81,6.98,4.94
	c2.48,1.04,5.1,1.57,7.72,1.57c2.53,0,5.06-0.49,7.47-1.47C41.8,44.22,46.69,32.66,42.57,22.56z"/>
</svg>
