<?xml version="1.0" encoding="utf-8"?>
<!-- Generator: Adobe Illustrator 25.0.1, SVG Export Plug-In . SVG Version: 6.00 Build 0)  -->
<svg version="1.1" id="Calque_1" xmlns="http://www.w3.org/2000/svg" xmlns:xlink="http://www.w3.org/1999/xlink" x="0px" y="0px"
	 viewBox="0 0 100 100" style="enable-background:new 0 0 100 100;" xml:space="preserve">
<style type="text/css">
	.st0{fill:#FFFFFF;}
</style>
<path class="st0" d="M78.69,29.47l-6.5,8.63l2.61,1.97L61.98,57.09l-2.61-1.97L46.95,71.6c-0.4,0.53-1.15,0.62-1.69,0.21
	c-0.54-0.41-0.65-1.16-0.26-1.69l12.41-16.48l-2.63-1.99L67.6,34.64l2.63,1.99l6.5-8.63c-13.48-9.07-34.6-2.58-47.85,14.99
	C15.8,60.37,15.26,82.17,27.26,92.77c-2.34,2.16-4.24,3.18-5.68,3.01c-1.9-0.22-3.15-2.74-4.35-5.18c-0.27-0.56-0.55-1.1-0.83-1.63
	c-1.76-3.32-4.97-3.8-7.24-2.86C7.04,87,5.21,89.39,6.21,92.53c0.18,0.55,0.76,0.86,1.31,0.68s0.85-0.75,0.67-1.3
	c-0.6-1.91,0.46-3.33,1.78-3.88c1.36-0.57,3.36-0.4,4.59,1.92c0.27,0.51,0.54,1.04,0.8,1.58c1.38,2.8,2.95,5.97,5.97,6.32
	c0.19,0.02,0.36,0.03,0.55,0.03c1.98,0,4.26-1.25,6.97-3.78c13.43,9.84,35.12,3.41,48.61-14.49C90.72,62.02,91.14,39.93,78.69,29.47
	z"/>
</svg>
