<?xml version="1.0" encoding="utf-8"?>
<!-- Generator: Adobe Illustrator 25.0.1, SVG Export Plug-In . SVG Version: 6.00 Build 0)  -->
<svg version="1.1" id="Calque_1" xmlns="http://www.w3.org/2000/svg" xmlns:xlink="http://www.w3.org/1999/xlink" x="0px" y="0px"
	 viewBox="0 0 100 100" style="enable-background:new 0 0 100 100;" xml:space="preserve">
<style type="text/css">
	.st0{display:none;}
	.st1{display:inline;fill:#414644;}
	.st2{display:inline;fill:#FFFFFF;}
	.st3{fill:#FFFFFF;}
</style>
<g id="Fond" class="st0">
	<rect x="-0.13" y="0.09" class="st1" width="100.17" height="99.83"/>
</g>
<g id="icnContact" class="st0">
	<path class="st2" d="M50,0C22.39,0,0,22.39,0,50s22.39,50,50,50s50-22.39,50-50S77.61,0,50,0z M60.54,45.62
		c0,2.88-2.35,5.21-5.26,5.27c0,0.04,0.01,0.07,0.01,0.11c0,2.91-2.4,5.27-5.36,5.27c-2.35,0-4.34-1.49-5.07-3.56
		c-0.44,0.11-0.9,0.18-1.37,0.18c-2.96,0-5.36-2.36-5.36-5.27s2.4-5.27,5.36-5.27c0.4,0,0.78,0.04,1.15,0.12
		c-0.39-0.73-0.61-1.56-0.61-2.45c0-2.91,2.4-5.27,5.36-5.27s5.36,2.36,5.36,5.27c0,0.11-0.01,0.23-0.02,0.34
		c0.15-0.01,0.3-0.02,0.45-0.02C58.14,40.35,60.54,42.71,60.54,45.62z M24.97,29.03c-2.43-3.76-1.3-8.75,2.53-11.14
		c0.87-0.54,1.8-0.9,2.76-1.09c-1.33-3.52-0.03-7.59,3.32-9.69c3.86-2.4,8.97-1.27,11.42,2.52c0.52,0.81,0.87,1.67,1.07,2.55
		c3.27-0.29,6.58,1.18,8.46,4.09c2.68,4.15,1.43,9.65-2.79,12.29c-3.92,2.45-9.03,1.56-11.88-1.91c-0.49,1.95-1.7,3.72-3.56,4.88
		C32.47,33.91,27.4,32.8,24.97,29.03z M60.32,95.12H43.23c-6.1-5.59-6.09-11.6-5.71-14.28c5.9,3.66,5.76,4.38,6.16,5.8
		c-0.38-4.16,4.43-12.4,4.77-16.94c1.51,6.16,3.79,12.87,2.21,17.91c3.66-6.35,2.68-9.23,4.91-14c2.29,4.89,4.58,10.9,3.07,15.21
		c2.67-4.57,1.42-5.57,4.17-9.97C64.54,84.99,64.09,89.05,60.32,95.12z M63.33,69.63c-13.8-5.26-16.61,2.18-35.28-1.65
		c1.69-2.17,6.8-7.27,12.26-9.29c18.66,3.83,21.49-3.63,35.29,1.63C70.14,62.34,65.02,67.46,63.33,69.63z"/>
</g>
<g id="Calque_3">
	<g>
		<path class="st3" d="M68.75,84.44c0,0.33-0.26,0.59-0.56,0.59H49.82H31.8c-0.3,0-0.56-0.27-0.56-0.59V15.52
			c0-0.32,0.26-0.59,0.56-0.59h19.06H68.2c0.3,0,0.56,0.27,0.56,0.59L68.75,84.44L68.75,84.44z M62.09,8.57
			c0,0.89-0.52,1.61-1.16,1.61H44.38c-0.63,0-1.16-0.73-1.16-1.61c0-0.89,0.52-1.62,1.16-1.62h16.56
			C61.57,6.95,62.09,7.68,62.09,8.57 M42.46,8.66c0,1.22-1.01,2.21-2.27,2.21c-1.26,0-2.28-0.99-2.28-2.21s1.01-2.21,2.28-2.21
			C41.43,6.45,42.46,7.44,42.46,8.66 M45.76,90.92c0-2.15,1.89-3.88,4.24-3.88c2.34,0,4.24,1.74,4.24,3.88
			c0,2.15-1.9,3.88-4.24,3.88S45.76,93.07,45.76,90.92 M73.44,90.36V9.62c0-3.58-3.07-6.51-6.82-6.51H33.38
			c-3.76,0-6.82,2.93-6.82,6.51v80.75c0,3.58,3.07,6.51,6.82,6.51h33.26C70.38,96.88,73.44,93.96,73.44,90.36"/>
	</g>
</g>
</svg>
