<?xml version="1.0" encoding="utf-8"?>
<!-- Generator: Adobe Illustrator 25.0.1, SVG Export Plug-In . SVG Version: 6.00 Build 0)  -->
<svg version="1.1" id="Calque_1" xmlns="http://www.w3.org/2000/svg" xmlns:xlink="http://www.w3.org/1999/xlink" x="0px" y="0px"
	 viewBox="0 0 100 100" style="enable-background:new 0 0 100 100;" xml:space="preserve">
<style type="text/css">
	.st0{fill:#FFFFFF;}
	.st1{fill:#666666;}
	.st2{fill:#867559;}
	.st3{fill:#0071BC;}
	.st4{fill:#005AA1;}
</style>
<g>
	<path class="st0" d="M77.39,50.65l0.04-0.21c0.47-6.99,0.3-17.52-3.84-23.78C71.77,23.91,71.81,24,71.81,24l-0.18-0.02
		c-0.8-2.43,1.67,0.19,3.49,1.93c1.96,1.87,1.94-1.21,0.16-3.82c-1.77-2.61-0.96-2.91,0.91-2.35c1.87,0.56,0.75-0.79-1.59-2.1
		c-2.33-1.31-7.32-2.07-0.51-1.52c6.81,0.56-1.5-1.89-7.74-2.7c-2.39-0.31,6.56-0.81,3.98-1.49c-2.58-0.68-11.25-0.84-12.25-0.78
		c-0.99,0.06,2.86-1.68,4.94-2.39c2.08-0.71-9.79-0.62-11.72-0.28c-1.93,0.34,2.89-1.09,4.26-1.71c1.37-0.62-7.31-2.25-13.13,0.96
		c-1.32,0.73-2.21,1.5-2.88,2.31l-0.25-0.07c-3.92-2.05-12.59,0.56-14.36,2.7c-1.77,2.14-0.47,1.96,0.93,1.21
		c1.4-0.75,1.68-0.37-0.28,1.59c-1.96,1.96-4.66,5.04-2.8,3.73c1.87-1.31,1.87,0.09,0.09,1.87c-1.77,1.77-2.05,4.2-0.93,3.08
		c1.12-1.12,3.45-3.17,1.96-0.75c-1.49,2.42-3.08,6.43-1.59,4.38c1.49-2.05,3.54-5.04,2.14-1.96c-1.07,2.36-1.05,4.01-0.55,4.01
		c-2.47,6.26-2.56,14.54-2.15,20.61l-0.01,0.03c-2.09-0.02-2.41,3.83-1.73,7.89c0.83,4.97,2.71,13.48,6.72,13.41l0.17,0.05h0.24
		c3.9,14.01,12.27,23.09,22.16,23.09c9.9,0,18.28-9.11,22.17-23.15l0.32,0l0.46,0.01l0.01-0.01c4.04,0.12,5.99-9.42,6.82-13.41
		C79.72,55.43,79.41,51,77.39,50.65z"/>
	<path class="st1" d="M77.39,50.65l0.04-0.21v0c0.26-4.6,0.21-9.23-0.51-13.78c-0.37-2.27-0.92-4.51-1.78-6.64
		c-0.41-1.07-0.95-2.08-1.56-3.05c-0.3-0.49-0.64-0.96-0.95-1.44l-0.48-0.72l-0.24-0.36l-0.12-0.18l-0.06-0.09l-0.03-0.04
		l-0.01-0.02l-0.01-0.01l0,0c0.07-0.12-0.2,0.24,0.33-0.14c0.06-0.04,0.14-0.03,0.18,0.03s0.03,0.14-0.03,0.18
		c-0.03,0.02-0.06,0.03-0.08,0.02l-0.27-0.02l-0.18-0.02c-0.08-0.01-0.14-0.06-0.16-0.13c-0.08-0.26-0.18-0.51-0.16-0.85
		c0.01-0.08,0.03-0.21,0.15-0.31c0.13-0.1,0.27-0.08,0.35-0.06c0.18,0.04,0.3,0.12,0.42,0.19c0.47,0.31,0.86,0.66,1.26,1.02
		l1.16,1.09c0.38,0.36,0.76,0.76,1.15,1c0.2,0.13,0.4,0.17,0.46,0.08c0.1-0.09,0.13-0.35,0.14-0.57c-0.01-0.48-0.13-0.98-0.3-1.46
		c-0.18-0.48-0.39-0.95-0.65-1.39c-0.25-0.43-0.57-0.86-0.85-1.34c-0.14-0.24-0.27-0.48-0.37-0.74c-0.09-0.27-0.23-0.55-0.12-0.96
		c0.05-0.21,0.25-0.39,0.43-0.45c0.18-0.07,0.34-0.08,0.5-0.08c0.3,0.01,0.58,0.06,0.85,0.12l0.76,0.2
		c0.12,0.02,0.23,0.04,0.31,0.03c0,0,0.06-0.03-0.03,0.04c-0.05,0.07-0.02,0.14-0.04,0.09c-0.15-0.28-0.63-0.67-1.02-0.95
		c-0.85-0.6-1.74-1.11-2.71-1.46c-0.49-0.19-0.98-0.35-1.48-0.52c-0.25-0.09-0.5-0.17-0.76-0.27l-0.21-0.09
		c-0.05-0.03-0.06-0.03-0.13-0.08c-0.04-0.03-0.04-0.02-0.1-0.09c-0.07-0.11-0.13-0.2-0.03-0.4c0.15-0.2,0.15-0.12,0.2-0.16
		c0.05-0.02,0.09-0.03,0.1-0.03l0.13-0.02l0.22-0.01c1.1,0.01,2.14,0.11,3.19,0.18c0.52,0.04,1.04,0.07,1.55,0.06
		c0.24,0.01,0.55-0.03,0.63-0.06c-0.04,0.01-0.08,0.05-0.1,0.12c-0.03,0.05-0.03,0.13,0,0.18c0.02,0.04,0.01,0.03,0.01,0.04
		c0.05,0.05-0.03-0.01-0.05-0.03c-0.09-0.05-0.19-0.1-0.31-0.15c-1.9-0.73-4-1.16-6.05-1.58c-1.03-0.2-2.07-0.37-3.1-0.52
		c-0.27-0.04-0.49-0.05-0.83-0.12c-0.04-0.01-0.08-0.02-0.18-0.06l-0.06-0.03c0,0.01-0.08-0.04-0.14-0.16
		c-0.06-0.11-0.06-0.25-0.04-0.31c0.02-0.05,0.05-0.11,0.09-0.16c0.27-0.23,0.27-0.15,0.37-0.2c0.15-0.04,0.29-0.07,0.42-0.1
		c0.54-0.1,1.06-0.18,1.58-0.26c0.52-0.08,1.04-0.16,1.54-0.26c0.25-0.05,0.5-0.11,0.72-0.18c0.09-0.02,0.25-0.12,0.16-0.05
		c0.01-0.01-0.06,0.07-0.06,0.13c-0.01,0.07,0,0.12,0.01,0.17c0.01,0.05,0.05,0.1,0.07,0.12l0,0.01c0.04,0.02-0.05-0.02-0.07-0.03
		c-0.89-0.26-2-0.35-3.02-0.45c-2.09-0.17-4.19-0.26-6.3-0.31l-1.58-0.02l-0.79,0l-0.39,0.01l-0.18,0.01l-0.13,0
		c-0.03,0-0.05,0-0.12-0.01l-0.08-0.02c-0.01,0-0.08-0.02-0.17-0.08c-0.08-0.07-0.13-0.11-0.17-0.23c-0.05-0.11-0.02-0.29,0-0.33
		c0.02-0.07,0.09-0.17,0.11-0.19c0.05-0.06,0.1-0.1,0.13-0.12c0.08-0.06,0.14-0.1,0.2-0.14c0.13-0.08,0.25-0.15,0.37-0.21
		c0.24-0.13,0.48-0.25,0.73-0.37c0.48-0.23,0.97-0.45,1.46-0.66c0.49-0.21,0.98-0.41,1.48-0.61l0.75-0.28l0.17-0.06
		c0.03,0,0.1-0.07-0.03,0.05c0,0-0.05,0.06-0.07,0.12c-0.02,0.06-0.03,0.11-0.02,0.2c0.04,0.19,0.09,0.21,0.14,0.26
		c0.05,0.04,0.06,0.04,0.05,0.04c-0.02-0.01-0.07-0.02-0.12-0.03c-0.93-0.16-2.03-0.17-3.06-0.2c-2.1-0.04-4.21-0.01-6.3,0.08
		c-0.52,0.02-1.05,0.05-1.56,0.1c-0.28,0.03-0.46,0.05-0.76,0.1C51.11,9,51.06,9.02,50.91,9.02l-0.07,0c0.04,0.01-0.15,0-0.31-0.15
		c-0.12-0.08-0.24-0.37-0.06-0.64c0.14-0.17,0.08-0.08,0.13-0.13c0.12-0.09,0.11-0.07,0.17-0.1c0.15-0.07,0.27-0.11,0.4-0.16l3-1.05
		l0.73-0.27l0.35-0.14c0.04-0.02,0.16-0.07,0.1-0.05c0,0.01-0.01,0-0.09,0.1c-0.04,0.07-0.08,0.21-0.02,0.35
		c0.04,0.08,0.04,0.08,0.07,0.11c0.01,0.01-0.02-0.01-0.02-0.01c-0.01-0.01-0.07-0.03-0.11-0.05c-0.1-0.04-0.2-0.08-0.32-0.11
		c-0.23-0.07-0.47-0.12-0.72-0.16c-1-0.18-2.03-0.24-3.07-0.24c-2.06,0-4.14,0.27-6.08,0.89c-1.93,0.63-3.78,1.65-5.04,3.18
		c-0.14,0.17-0.36,0.23-0.55,0.17l-0.25-0.07c-0.03-0.01-0.06-0.02-0.08-0.03l-0.01-0.01c-0.96-0.49-2.12-0.66-3.27-0.67
		c-1.16-0.01-2.33,0.12-3.48,0.33c-1.16,0.21-2.29,0.54-3.39,0.93c-1.09,0.4-2.18,0.89-3.06,1.55c-0.24,0.16-0.37,0.33-0.56,0.54
		c-0.18,0.22-0.35,0.45-0.49,0.67c-0.07,0.11-0.12,0.22-0.16,0.3c-0.05,0.09,0.05,0.08-0.11-0.15c-0.2-0.13-0.12-0.04-0.02-0.08
		c0.09-0.01,0.22-0.05,0.34-0.09c0.24-0.09,0.5-0.2,0.75-0.34c0.29-0.14,0.56-0.3,0.97-0.4c0.13-0.02,0.24-0.06,0.51,0.01
		c0.12,0.02,0.39,0.23,0.41,0.38c0.03,0.09,0.05,0.19,0.05,0.27l-0.02,0.14c-0.08,0.34-0.19,0.45-0.29,0.61
		c-0.2,0.29-0.41,0.52-0.61,0.76c-0.87,0.92-1.68,1.71-2.48,2.62c-0.39,0.44-0.79,0.89-1.14,1.34c-0.08,0.11-0.17,0.23-0.23,0.33
		l-0.06,0.11c0.01-0.01,0.01-0.03,0.01-0.05c0,0.01,0.01-0.09,0.01-0.13c-0.01-0.07,0-0.06-0.07-0.21
		c-0.05-0.12-0.23-0.21-0.27-0.22c-0.05-0.02-0.11-0.03-0.17-0.03c-0.11,0.01-0.06,0-0.1,0.01c-0.03,0.02,0.15-0.08,0.24-0.15
		l0.39-0.26c0.31-0.17,0.54-0.37,1.1-0.42c0.08,0,0.16,0,0.24,0.01c0.09,0.02,0.22,0.08,0.32,0.14c0.1,0.06,0.18,0.17,0.24,0.28
		c0.07,0.11,0.07,0.18,0.09,0.28c0.04,0.35-0.04,0.53-0.1,0.72c-0.29,0.7-0.7,1.18-1.14,1.66c-0.44,0.46-0.77,0.82-1.06,1.31
		c-0.28,0.46-0.52,0.99-0.58,1.43c-0.03,0.07,0.04,0.23-0.05,0.03c-0.02-0.02-0.09-0.11-0.2-0.13c-0.12-0.01-0.11-0.03-0.17-0.01
		c-0.06,0.02-0.05,0.02-0.04,0.01c0.01-0.01,0.01-0.01,0.02-0.01c0.11-0.09,0.39-0.38,0.6-0.57c0.45-0.42,0.9-0.83,1.44-1.22
		c0.14-0.1,0.27-0.19,0.5-0.29c0.07-0.03,0.13-0.05,0.26-0.07c0.04-0.01,0.17-0.01,0.28,0.02c0.1,0.02,0.3,0.17,0.35,0.27
		c0.07,0.12,0.1,0.25,0.1,0.3c0.01,0.07,0,0.15,0,0.18c-0.01,0.09-0.03,0.16-0.05,0.2c-0.14,0.41-0.3,0.64-0.47,0.93
		c-0.31,0.51-0.59,1.01-0.87,1.54c-0.27,0.52-0.53,1.06-0.76,1.6c-0.12,0.27-0.23,0.54-0.33,0.81c-0.09,0.24-0.2,0.6-0.2,0.68
		c0-0.01,0-0.05-0.01-0.08c0,0.01-0.02-0.08-0.06-0.14c-0.05-0.07-0.08-0.09-0.16-0.15c-0.08-0.06-0.2-0.08-0.3-0.07
		c-0.05,0-0.07,0.01-0.1,0.02c-0.03,0.01-0.06,0.03-0.08,0.04l-0.01,0c-0.03,0.02,0.03-0.03,0.06-0.07c0.08-0.08,0.16-0.2,0.25-0.31
		l0.53-0.73l1.07-1.47c0.18-0.24,0.37-0.49,0.58-0.73c0.11-0.13,0.2-0.24,0.37-0.39c0.05-0.04,0.09-0.08,0.23-0.15
		c0.05-0.02,0.11-0.04,0.17-0.05c0.03-0.02,0.29,0,0.4,0.1c0.13,0.1,0.15,0.15,0.21,0.26c0.02,0.05,0.03,0.1,0.04,0.14l0,0.05
		c0,0.28-0.04,0.31-0.06,0.42c-0.22,0.66-0.5,1.18-0.7,1.71c-0.21,0.53-0.39,1.08-0.5,1.63c-0.05,0.27-0.09,0.54-0.09,0.79
		c0,0.12,0.01,0.24,0.03,0.31c0.01,0.02,0.02,0.06,0,0.02c-0.01-0.01-0.11-0.12-0.24-0.1l0.5,0.73c-1.24,3.17-1.83,6.6-2.11,10.03
		c-0.28,3.44-0.25,6.9-0.03,10.35c0,0.06,0,0.12-0.02,0.18l-0.01,0.03l-0.01,0.03c-0.06,0.22-0.27,0.35-0.48,0.34
		c-0.7-0.04-1.17,0.81-1.35,1.76c-0.2,0.94-0.22,1.95-0.17,2.95c0.11,2,0.52,4.03,0.94,6.03c0.44,1.99,0.98,3.97,1.79,5.82
		c0.41,0.91,0.88,1.8,1.5,2.53c0.62,0.72,1.41,1.26,2.27,1.24c0.05,0,0.1,0.01,0.15,0.02l0.17,0.05l-0.14-0.02l0.24,0
		c0.22,0,0.4,0.15,0.46,0.35c1.55,5.44,3.82,10.77,7.38,15.17c1.78,2.19,3.9,4.11,6.34,5.49c2.43,1.38,5.2,2.19,8,2.21
		c2.8-0.01,5.58-0.8,8.03-2.18c2.46-1.37,4.6-3.3,6.4-5.48c3.61-4.39,5.95-9.72,7.56-15.18l0-0.01c0.02-0.07,0.09-0.12,0.16-0.12
		l0.78,0.01l-0.11,0.04l0.01-0.01c0.03-0.03,0.08-0.04,0.12-0.04c0.97,0.05,1.85-0.58,2.47-1.33c0.64-0.76,1.13-1.65,1.55-2.57
		c0.83-1.84,1.41-3.8,1.91-5.76c0.25-0.98,0.47-1.97,0.69-2.97c0.23-0.99,0.39-1.99,0.43-3c0.03-1.01-0.02-2.03-0.24-3.02
		c-0.12-0.49-0.28-0.98-0.54-1.41C78.3,51.11,77.9,50.73,77.39,50.65z M77.39,50.65c0.51,0.08,0.93,0.46,1.19,0.89
		c0.27,0.44,0.44,0.92,0.56,1.41c0.24,0.99,0.3,2.02,0.28,3.03c-0.02,1.02-0.17,2.04-0.39,3.03c-0.2,1-0.41,1.99-0.65,2.98
		c-0.48,1.98-1.03,3.94-1.85,5.82c-0.41,0.93-0.9,1.85-1.55,2.65c-0.63,0.79-1.58,1.51-2.7,1.48l0.12-0.04l-0.01,0.01
		c-0.03,0.03-0.07,0.04-0.11,0.04l-0.78,0l0.16-0.12c-1.54,5.51-3.82,10.92-7.44,15.45c-1.82,2.24-3.99,4.23-6.52,5.68
		c-2.52,1.45-5.41,2.29-8.34,2.32c-2.93,0.01-5.84-0.82-8.38-2.24c-2.55-1.42-4.76-3.4-6.6-5.63c-3.7-4.5-6.05-9.91-7.66-15.44
		l0.46,0.35l-0.24,0c-0.05,0-0.1-0.01-0.14-0.02l-0.17-0.05l0.15,0.02c-1.25,0.03-2.32-0.74-3.02-1.57
		c-0.72-0.85-1.21-1.81-1.65-2.77c-0.85-1.94-1.4-3.96-1.86-5.99c-0.43-2.03-0.86-4.07-0.98-6.19c-0.05-1.06-0.05-2.13,0.18-3.21
		c0.12-0.54,0.28-1.09,0.63-1.62c0.33-0.52,1.02-0.98,1.71-0.95l-0.49,0.36l0.01-0.03l-0.02,0.18c-0.23-3.49-0.27-7,0-10.51
		c0.29-3.5,0.87-7.01,2.16-10.34l0.5,0.73c-0.28,0-0.53-0.19-0.61-0.33c-0.12-0.16-0.14-0.27-0.18-0.38
		c-0.05-0.22-0.07-0.41-0.07-0.58c0-0.36,0.04-0.68,0.1-1c0.12-0.64,0.32-1.24,0.55-1.82c0.23-0.59,0.52-1.14,0.67-1.62
		c0.02-0.03,0.02-0.15,0.02-0.02l0,0.02c0,0.03,0.01,0.08,0.03,0.11c0.04,0.09,0.06,0.12,0.18,0.21c0.1,0.09,0.33,0.1,0.35,0.09
		c0.04,0,0.08-0.01,0.11-0.03c0.08-0.03,0.06-0.04,0.05-0.02c-0.06,0.05-0.16,0.16-0.24,0.26c-0.18,0.22-0.36,0.45-0.54,0.69
		l-1.06,1.45l-0.53,0.74c-0.1,0.13-0.19,0.26-0.32,0.4c-0.07,0.07-0.11,0.13-0.27,0.24l-0.05,0.04c-0.03,0.02-0.09,0.04-0.13,0.06
		c-0.05,0.02-0.09,0.03-0.15,0.03c-0.11,0.01-0.25-0.02-0.35-0.08c-0.11-0.06-0.14-0.11-0.2-0.19c-0.05-0.07-0.08-0.18-0.08-0.19
		c-0.01-0.06-0.02-0.14-0.02-0.19c0.05-0.53,0.16-0.73,0.27-1.06c0.11-0.3,0.23-0.58,0.35-0.87c0.24-0.57,0.51-1.12,0.79-1.67
		c0.28-0.54,0.58-1.09,0.9-1.61c0.14-0.24,0.3-0.52,0.35-0.68c0.01-0.02,0.01-0.03,0.01-0.01c0-0.01,0,0.03,0,0.06
		c0,0.01,0.01,0.11,0.07,0.19c0.03,0.07,0.19,0.2,0.27,0.2c0.07,0.03,0.16,0.02,0.16,0.02c0.06-0.01,0.05-0.01,0.05-0.01
		c-0.05,0.02-0.17,0.1-0.28,0.17c-0.44,0.32-0.89,0.72-1.31,1.12c-0.24,0.21-0.36,0.38-0.71,0.67l-0.17,0.1
		c-0.05,0.03-0.11,0.07-0.24,0.09c-0.13,0.01-0.2,0.05-0.38-0.01c-0.17-0.06-0.32-0.17-0.37-0.26c-0.27-0.46-0.16-0.62-0.17-0.84
		c0.11-0.76,0.4-1.33,0.74-1.9c0.32-0.55,0.81-1.09,1.2-1.49c0.38-0.4,0.74-0.87,0.91-1.29c0.04-0.09,0.05-0.2,0.05-0.16
		c0,0,0.04,0.13,0.13,0.18c0.03,0.03,0.09,0.05,0.11,0.05c0.01,0.01,0.01,0.01,0.02,0.01c-0.05-0.01-0.35,0.13-0.55,0.26l-0.36,0.24
		c-0.16,0.1-0.23,0.18-0.55,0.29c-0.07,0.01-0.06,0.03-0.21,0.03c-0.07,0-0.15-0.01-0.22-0.04c-0.06-0.01-0.24-0.13-0.31-0.25
		c-0.09-0.16-0.07-0.17-0.08-0.26c-0.01-0.06,0-0.17,0.01-0.18c0.01-0.05,0.03-0.11,0.05-0.16c0.05-0.13,0.11-0.21,0.15-0.29
		c0.1-0.15,0.19-0.28,0.29-0.41c0.39-0.5,0.79-0.96,1.2-1.41c0.8-0.9,1.71-1.79,2.49-2.62c0.19-0.21,0.38-0.43,0.52-0.64
		c0.07-0.09,0.13-0.24,0.11-0.19c0,0.01,0,0.02,0,0.03c0,0.04,0,0.11,0.03,0.16c0.02,0.08,0.19,0.24,0.26,0.24
		c0.13,0.03,0.09,0.01,0.06,0.02c-0.38,0.09-0.95,0.48-1.59,0.7c-0.16,0.06-0.33,0.11-0.53,0.14c-0.19,0.01-0.45,0.12-0.89-0.21
		c-0.19-0.17-0.26-0.47-0.24-0.61c0-0.2,0.05-0.26,0.08-0.39c0.08-0.19,0.16-0.36,0.25-0.5c0.18-0.29,0.37-0.54,0.57-0.79
		c0.21-0.23,0.48-0.53,0.74-0.71c1.06-0.79,2.2-1.27,3.36-1.7c1.16-0.41,2.35-0.75,3.56-0.97c1.21-0.22,2.45-0.36,3.7-0.34
		c1.24,0.02,2.54,0.2,3.74,0.8l-0.09-0.04l0.25,0.07l-0.55,0.17c1.45-1.75,3.47-2.82,5.53-3.49c2.08-0.66,4.25-0.93,6.4-0.92
		c1.08,0.01,2.16,0.08,3.24,0.27c0.27,0.05,0.54,0.11,0.82,0.19c0.14,0.04,0.28,0.09,0.43,0.15c0.08,0.04,0.15,0.06,0.25,0.13
		c0.05,0.03,0.09,0.06,0.15,0.1c0.07,0.08,0.13,0.12,0.19,0.26c0.18,0.42-0.21,0.74-0.27,0.76c-0.16,0.1-0.17,0.09-0.25,0.13
		l-0.38,0.15L54.5,7.71l-2.98,1.04c-0.12,0.04-0.24,0.09-0.33,0.13c0,0-0.07,0.04,0-0.01c0.04-0.04-0.04,0.06,0.09-0.1
		c0.17-0.26,0.03-0.53-0.06-0.61c-0.14-0.14-0.32-0.14-0.27-0.13l-0.02,0c-0.02,0,0.06-0.01,0.11-0.01
		c0.22-0.04,0.56-0.09,0.81-0.11c0.54-0.05,1.07-0.08,1.6-0.1c2.12-0.09,4.24-0.1,6.36-0.06c1.08,0.04,2.1,0.03,3.25,0.23
		c0.08,0.02,0.16,0.04,0.26,0.08c0.05,0.02,0.12,0.05,0.22,0.13c0.07,0.07,0.14,0.12,0.19,0.34c0.04,0.17-0.07,0.36-0.12,0.4
		c-0.21,0.22-0.28,0.19-0.37,0.24l-0.2,0.07l-0.73,0.27c-0.49,0.19-0.97,0.38-1.45,0.58c-0.48,0.2-0.96,0.41-1.43,0.64l-0.69,0.34
		c-0.11,0.06-0.22,0.12-0.32,0.18c-0.05,0.03-0.1,0.06-0.12,0.08c-0.02,0.02-0.02,0.02-0.01,0.01c0,0.01,0.05-0.07,0.06-0.1
		c0.02-0.03,0.05-0.19,0-0.28c-0.05-0.1-0.07-0.14-0.14-0.19c-0.07-0.05-0.13-0.06-0.12-0.06l-0.03-0.01c-0.04,0-0.02,0-0.02,0
		l0.07,0l0.21-0.01l0.4,0l0.8,0.01l1.59,0.04c2.12,0.06,4.23,0.17,6.35,0.36c1.07,0.12,2.09,0.19,3.23,0.53
		c0.1,0.05,0.14,0.04,0.28,0.15l0.09,0.07c0.04,0.04,0.1,0.13,0.12,0.2c0.08,0.12-0.03,0.42-0.1,0.47c-0.28,0.26-0.38,0.23-0.54,0.3
		C70.27,12.89,70,12.94,69.73,13c-0.53,0.1-1.06,0.18-1.58,0.26c-0.52,0.08-1.05,0.15-1.55,0.24c-0.12,0.02-0.25,0.05-0.35,0.08
		l-0.07,0.02l0,0c-0.01,0-0.01,0.02,0.08-0.07c0.03-0.04,0.05-0.08,0.06-0.13c0.02-0.05,0.03-0.17-0.02-0.26
		c-0.06-0.1-0.13-0.13-0.11-0.12L66.18,13c-0.03-0.02-0.02-0.01,0.01,0c0.18,0.04,0.49,0.07,0.74,0.11c1.05,0.15,2.1,0.34,3.14,0.55
		c2.08,0.44,4.14,0.87,6.18,1.67c0.13,0.06,0.26,0.12,0.4,0.2c0.08,0.07,0.13,0.07,0.25,0.23c0.03,0.04,0.04,0.05,0.07,0.12
		c0.02,0.08,0.02,0.19,0,0.28c-0.05,0.13-0.15,0.21-0.24,0.26c-0.42,0.15-0.65,0.12-0.94,0.13c-0.55,0-1.08-0.04-1.61-0.08
		c-1.05-0.08-2.11-0.19-3.13-0.2l-0.18,0.01l-0.06,0.01c-0.02,0-0.01,0,0.01,0c0.03-0.03-0.02,0.05,0.12-0.12
		c0.07-0.17,0.03-0.24-0.02-0.32c-0.05-0.05-0.01-0.02-0.03-0.03c-0.02-0.01,0.03,0.02,0.04,0.02l0.16,0.07
		c0.23,0.09,0.48,0.18,0.73,0.27c0.5,0.17,1,0.35,1.5,0.54c1.01,0.37,1.97,0.92,2.84,1.55c0.22,0.16,0.43,0.33,0.64,0.51
		c0.2,0.21,0.41,0.35,0.58,0.73c0.03,0.07,0.09,0.3-0.05,0.46c-0.08,0.1-0.16,0.14-0.21,0.15c-0.06,0.02-0.14,0.04-0.18,0.04
		c-0.19,0.01-0.33-0.02-0.48-0.05L75.7,19.9c-0.24-0.06-0.49-0.1-0.72-0.11c-0.24-0.01-0.37,0.06-0.38,0.13
		c-0.07,0.28,0.19,0.84,0.43,1.26c0.25,0.44,0.56,0.87,0.83,1.35c0.27,0.47,0.49,0.97,0.67,1.49c0.17,0.52,0.3,1.05,0.31,1.63
		c-0.03,0.29-0.01,0.6-0.29,0.91c-0.09,0.06-0.18,0.12-0.28,0.15c-0.1,0.01-0.2,0.01-0.29,0.01c-0.16-0.05-0.33-0.1-0.44-0.18
		c-0.5-0.32-0.84-0.72-1.23-1.08l-1.13-1.1c-0.38-0.35-0.77-0.72-1.18-0.99c-0.1-0.07-0.21-0.12-0.29-0.15
		c-0.04-0.01-0.05,0-0.03-0.01c0.02-0.02,0,0,0,0.04c-0.01,0.19,0.06,0.46,0.14,0.69l-0.16-0.13l0.18,0.02l-0.2,0.21
		c0.53-0.38,0.27-0.01,0.34-0.13l0.01,0.01l0.01,0.01L72,23.94l0.03,0.05l0.06,0.09l0.12,0.18l0.24,0.36l0.47,0.72
		c0.31,0.49,0.64,0.96,0.94,1.46c0.6,0.99,1.14,2.03,1.54,3.12c0.84,2.16,1.36,4.43,1.7,6.71c0.66,4.58,0.64,9.22,0.32,13.81l0,0
		L77.39,50.65z"/>
</g>
<path class="st2" d="M52.33,68.29c0.2,0.12,0.46,0.05,0.56-0.1c0.1-0.15,0.03-0.38-0.05-0.55c-0.16-0.35-0.25,0.21-0.52,0.65
	c-0.29,0.46-0.82,0.7-1.3,0.78c-0.49,0.09-0.97,0.06-1.44,0.02h0.05c-0.46,0.04-0.94,0.06-1.44-0.02c-0.48-0.08-1.02-0.32-1.3-0.78
	c-0.27-0.45-0.37-1.01-0.52-0.65c-0.09,0.17-0.16,0.4-0.05,0.55c0.1,0.16,0.36,0.23,0.56,0.1c-0.16,0.17-0.48,0.19-0.68-0.01
	c-0.2-0.22-0.15-0.52-0.09-0.76c0.05-0.11,0.11-0.3,0.37-0.33c0.24,0.02,0.33,0.16,0.41,0.26c0.17,0.22,0.23,0.44,0.36,0.58
	c0.24,0.3,0.61,0.46,1.03,0.51c0.41,0.06,0.85,0.03,1.3-0.01c0.02,0,0.04,0,0.05,0c0.45,0.05,0.88,0.07,1.3,0.01
	c0.42-0.05,0.79-0.21,1.03-0.51c0.12-0.13,0.19-0.36,0.36-0.58c0.09-0.1,0.17-0.24,0.41-0.26c0.25,0.03,0.32,0.22,0.36,0.33
	c0.07,0.24,0.11,0.53-0.08,0.76C52.81,68.48,52.49,68.46,52.33,68.29z"/>
<path class="st2" d="M45.57,68.68c-0.53-0.08-1.08-0.35-1.42-0.85c-0.35-0.49-0.45-1.09-0.44-1.65c0.04-0.61,0.26-1.13,0.53-1.6
	c0.26-0.48,0.6-0.9,0.95-1.31c-0.16,0.52-0.37,1.01-0.56,1.49c-0.18,0.48-0.35,0.98-0.36,1.43c-0.02,0.49,0.05,0.98,0.25,1.41
	C44.74,68.03,45.11,68.39,45.57,68.68z"/>
<path class="st2" d="M53.56,68.68c0.46-0.29,0.83-0.65,1.04-1.07c0.21-0.42,0.27-0.92,0.25-1.41c-0.02-0.46-0.19-0.95-0.36-1.43
	c-0.18-0.48-0.39-0.98-0.56-1.49c0.35,0.41,0.69,0.83,0.95,1.31c0.27,0.47,0.49,0.99,0.53,1.6c0.01,0.57-0.09,1.17-0.44,1.65
	C54.64,68.32,54.09,68.59,53.56,68.68z"/>
<circle class="st3" cx="38.5" cy="52.06" r="2.05"/>
<circle class="st3" cx="38.5" cy="52.06" r="2.05"/>
<circle class="st4" cx="38.5" cy="52.06" r="0.95"/>
<circle class="st0" cx="39.42" cy="50.79" r="0.43"/>
<circle class="st0" cx="39.22" cy="51.47" r="0.31"/>
<path class="st2" d="M61.71,66.88c-1.03-1.11-2.32-1.83-3.64-2.42c-0.66-0.29-1.34-0.53-2.01-0.79c-0.69-0.2-1.37-0.43-2.07-0.61
	c1.31,0.59,2.63,1.14,3.89,1.79c1.25,0.66,2.51,1.37,3.4,2.4c0.99,0.98,1.07,2.44,0.71,3.79c-0.32,1.37-0.83,2.74-1.01,4.17
	c0.41-1.38,1-2.67,1.43-4.06c0.2-0.7,0.36-1.45,0.24-2.21C62.56,68.17,62.21,67.43,61.71,66.88z"/>
<path class="st2" d="M56.26,52.11c1.51,0.51,3.1,0.68,4.68,0.71c0.79,0.01,1.58-0.01,2.37-0.1c0.79-0.08,1.57-0.18,2.34-0.37
	c-1.58-0.09-3.14-0.07-4.7-0.1C59.38,52.24,57.84,52.19,56.26,52.11z"/>
<path class="st2" d="M73.58,53.61c-0.25,6.95-1.22,13.93-3.46,20.47l-0.63-0.01c2.62-7.92,3.48-16.32,3.31-24.66
	c-0.3-4.16-0.82-8.31-1.73-12.4c-0.48-2.04-1.02-4.08-2.07-5.99c-1.08-1.83-2.42-3.49-3.98-4.94c-3.1-2.92-7.1-4.82-11.27-5.56
	c-2.08-0.4-4.21-0.51-6.32-0.45c-1.06,0.03-2.11,0.12-3.15,0.24l-1.56,0.21c-0.48,0.07-0.97,0.1-1.44,0.07
	c-0.94-0.06-1.82-0.43-2.4-1.11c-0.59-0.68-0.91-1.61-1.02-2.57c-0.11-0.96-0.03-1.96,0.22-2.89c0.12-0.48,0.3-0.87,0.54-1.35
	c0.23-0.46,0.46-0.9,0.72-1.32c1.01-1.69,2.69-2.85,4.53-3.64c1.85-0.77,3.87-1.14,5.89-1.26c1.01-0.06,2.03-0.05,3.04,0.03
	c0.5,0.04,1,0.1,1.49,0.19c0.04,0.01,0.07,0.02,0.1,0.02l-0.3,0.11L52.6,7.32l-1.49,0.53c-0.13,0.05-0.25,0.09-0.41,0.18l-0.08,0.04
	c-0.11,0.15,0.03-0.2-0.28,0.39c-0.1,0.65,0.64,0.69,0.51,0.66c0.04,0,0.11,0,0.13,0c0.1-0.01,0.17-0.02,0.25-0.03
	c0.29-0.05,0.47-0.07,0.74-0.1c2.03-0.16,4.12-0.19,6.19-0.2c1.03,0,2.07,0.01,3.09,0.06c0.07,0,0.15,0.01,0.22,0.01
	c-0.75,0.3-1.5,0.61-2.24,0.95c-0.49,0.24-0.94,0.43-1.46,0.78l-0.12,0.1l-0.08,0.08c-0.04,0.04-0.1,0.13-0.12,0.22
	c-0.08,0.28,0.07,0.53,0.22,0.61c0.2,0.11,0.16,0.06,0.25,0.09c0.11,0.01,0.14,0.01,0.2,0.01l0.37-0.01l0.77,0
	c2.07,0.02,4.14,0.09,6.21,0.21c1.03,0.06,2.06,0.14,3.08,0.26c0.22,0.03,0.44,0.06,0.66,0.09c-0.74,0.14-1.5,0.25-2.26,0.38
	c-0.26,0.04-0.52,0.09-0.8,0.15c-0.07,0.02-0.14,0.03-0.23,0.07c-0.04,0.02-0.1,0.03-0.18,0.08c-0.05,0.04-0.15,0.07-0.23,0.32
	c-0.04,0.4,0.2,0.47,0.22,0.5c0.21,0.11,0.25,0.09,0.34,0.12l0.22,0.03l1.53,0.21c2.04,0.32,4.07,0.73,6.06,1.26
	c0.5,0.13,0.99,0.28,1.47,0.44c0.06,0.02,0.11,0.04,0.16,0.06c-0.2,0-0.4-0.01-0.59-0.02l-1.55-0.11l-1.57-0.1
	c-0.26-0.01-0.53-0.02-0.8-0.02l-0.22,0.01l-0.14,0.02c-0.03,0.01-0.06,0.01-0.11,0.03c-0.04,0.03-0.15,0.02-0.23,0.27
	c-0.03,0.25,0.09,0.33,0.12,0.36c0.04,0.03,0.07,0.06,0.09,0.07c0.05,0.03,0.08,0.05,0.12,0.07l0.2,0.09
	c1.01,0.37,1.99,0.65,2.92,1.06c0.9,0.4,1.81,0.96,2.57,1.59c0.15,0.13,0.29,0.27,0.39,0.4c-0.01,0-0.03,0-0.04,0
	c-0.44-0.08-0.98-0.29-1.55-0.33c-0.27,0-0.64-0.05-0.96,0.3c-0.26,0.39-0.12,0.73-0.05,0.99c0.19,0.54,0.48,0.98,0.77,1.43
	c0.6,0.84,1.08,1.74,1.35,2.72c0.12,0.47,0.22,1.01,0.09,1.42c-0.09,0.42-0.63,0.13-0.99-0.19c-0.76-0.69-1.5-1.43-2.29-2.12
	c-0.41-0.33-0.76-0.71-1.35-0.89c-0.08-0.02-0.21,0-0.28,0.1c-0.08,0.09-0.08,0.18-0.08,0.25c0,0.15,0.03,0.29,0.06,0.42
	c0.06,0.26,0.16,0.51,0.25,0.75c0.4,0.96,0.74,1.94,1.03,2.94c0.28,1,0.54,2.01,0.67,3.04c0.03,0.26,0.06,0.52,0.05,0.77
	c0,0.13-0.01,0.26-0.05,0.38c-0.03,0.12-0.14,0.22-0.26,0.15c-0.43-0.28-0.69-0.77-0.97-1.19c0.27,0.44,0.51,0.92,0.96,1.22
	c0.13,0.09,0.3-0.03,0.32-0.17c0.04-0.13,0.05-0.26,0.06-0.39c0.01-0.26-0.01-0.52-0.04-0.78c-0.12-1.04-0.35-2.06-0.61-3.07
	c-0.27-1.01-0.59-2.01-0.97-2.97c-0.09-0.24-0.17-0.49-0.23-0.73c-0.06-0.23-0.07-0.55,0.06-0.48c0.41,0.13,0.82,0.53,1.2,0.86
	c0.77,0.7,1.48,1.45,2.24,2.17c0.2,0.18,0.42,0.35,0.71,0.46c0.15,0.05,0.33,0.08,0.51,0c0.18-0.08,0.29-0.25,0.35-0.39
	c0.19-0.59,0.07-1.13-0.04-1.66c-0.26-1.04-0.76-2.02-1.34-2.88c-0.27-0.43-0.53-0.88-0.68-1.33c-0.15-0.52-0.06-0.62,0.47-0.59
	c0.48,0.04,0.92,0.23,1.5,0.35c0.15,0.01,0.28,0.06,0.54-0.02c0.13-0.02,0.33-0.26,0.29-0.43c-0.01-0.16-0.06-0.24-0.11-0.31
	c-0.18-0.29-0.38-0.46-0.58-0.65c-0.84-0.7-1.71-1.26-2.7-1.72c-0.55-0.25-1.11-0.45-1.66-0.65l0.97,0.07l1.56,0.13
	c0.54,0.02,1.02,0.08,1.68-0.04c0.08-0.05,0.21,0.01,0.41-0.31c0.09-0.22-0.01-0.39-0.06-0.45c-0.05-0.07-0.1-0.11-0.14-0.14
	c-0.16-0.12-0.28-0.18-0.41-0.25c-0.26-0.12-0.51-0.21-0.76-0.3c-0.5-0.18-1.01-0.33-1.51-0.47c-1.9-0.53-3.82-0.94-5.76-1.28
	c0.62-0.09,1.24-0.18,1.87-0.32c0.14-0.03,0.27-0.07,0.42-0.12c0.08-0.03,0.15-0.05,0.24-0.1c0.09-0.07,0.21-0.04,0.38-0.38
	c0.09-0.23-0.03-0.49-0.12-0.57c-0.08-0.08-0.14-0.12-0.2-0.15c-0.1-0.06-0.18-0.09-0.26-0.11c-0.16-0.06-0.29-0.08-0.42-0.11
	c-0.54-0.13-1.06-0.2-1.59-0.27c-1.05-0.13-2.09-0.21-3.14-0.28c-1.93-0.12-3.86-0.19-5.79-0.22c0.9-0.42,1.83-0.81,2.76-1.16
	l0.73-0.26c0.09-0.04,0.15-0.05,0.31-0.15c0.03-0.02,0.11-0.09,0.15-0.15c0.08-0.12,0.15-0.28,0.09-0.49
	c-0.07-0.22-0.13-0.22-0.21-0.31c-0.04-0.03-0.09-0.06-0.13-0.08C63.19,8,63.06,8,62.91,7.96c-0.57-0.09-1.08-0.12-1.61-0.15
	c-1.05-0.05-2.1-0.07-3.14-0.08c-1.19,0-2.38,0.01-3.58,0.05l0.6-0.22l0.38-0.15l0.19-0.08c0.04-0.03,0.2-0.06,0.38-0.27
	c0.1-0.1,0.18-0.4,0.11-0.58c-0.06-0.2-0.15-0.26-0.2-0.32c-0.12-0.11-0.21-0.16-0.29-0.2c-0.16-0.08-0.31-0.13-0.45-0.18
	c-0.28-0.09-0.55-0.15-0.82-0.2c-0.54-0.1-1.07-0.17-1.6-0.22c-1.07-0.09-2.13-0.1-3.2-0.04c-2.12,0.13-4.26,0.53-6.25,1.37
	c-1.65,0.7-3.25,1.75-4.4,3.2c-1.2-0.57-2.55-0.75-3.88-0.75c-1.44,0-2.87,0.19-4.28,0.49c-1.4,0.32-2.78,0.76-4.1,1.39
	c-0.66,0.31-1.3,0.67-1.89,1.21c-0.31,0.28-0.51,0.55-0.74,0.87c-0.11,0.16-0.22,0.31-0.31,0.51c-0.07,0.19-0.25,0.39-0.11,0.86
	c0.09,0.26,0.38,0.38,0.53,0.4c0.16,0.03,0.29,0.02,0.4,0c0.23-0.03,0.42-0.09,0.61-0.15c0.25-0.08,0.49-0.2,0.71-0.31
	c-0.88,0.96-1.93,1.94-2.83,2.98l-0.71,0.82c-0.24,0.3-0.45,0.52-0.7,0.98c-0.01,0.03-0.03,0.07-0.05,0.14
	c-0.01,0.03-0.02,0.05-0.02,0.1c-0.01,0.08,0,0.16,0.01,0.24c0,0.06,0.13,0.28,0.27,0.35c0.12,0.07,0.17,0.06,0.27,0.07
	c0.19,0,0.16-0.02,0.25-0.04c0.18-0.06,0.26-0.12,0.35-0.17l0.46-0.3c0.08-0.06,0.17-0.11,0.26-0.15c-0.13,0.25-0.31,0.49-0.51,0.73
	c-0.4,0.47-1.01,1.01-1.42,1.67c-0.4,0.68-0.78,1.31-0.84,2.28c0,0.06,0,0.13,0.02,0.22c0.03,0.1,0.01,0.14,0.09,0.29
	c0.07,0.13,0.14,0.24,0.35,0.34c0.21,0.1,0.33,0.06,0.46,0.04c0.44-0.13,0.54-0.32,0.71-0.45c0.22-0.23,0.46-0.45,0.69-0.66
	c-0.04,0.07-0.08,0.15-0.12,0.22c-0.34,0.64-0.66,1.29-0.95,1.95c-0.15,0.33-0.29,0.67-0.42,1.01c-0.13,0.37-0.26,0.64-0.33,1.18
	c0,0.03,0,0.09,0.01,0.17c-0.01,0.02,0.06,0.25,0.22,0.37c0.1,0.07,0.25,0.11,0.36,0.1c0.06-0.01,0.11-0.02,0.16-0.04
	c0.12-0.05,0.12-0.06,0.17-0.1c0.14-0.11,0.2-0.18,0.27-0.26c0.13-0.16,0.25-0.31,0.35-0.46l0.62-0.87
	c0.12-0.17,0.23-0.32,0.35-0.49c-0.11,0.32-0.21,0.63-0.29,0.96c-0.09,0.36-0.15,0.73-0.19,1.11c-0.01,0.19-0.02,0.39,0,0.59
	c0.03,0.21,0.03,0.41,0.24,0.69c0.05,0.07,0.15,0.13,0.26,0.17c-1.58,3.03-2.26,6.46-2.55,9.84c-0.26,3.41-0.12,6.85,0.5,10.21
	c-0.56-0.01-1.17,0.26-1.51,0.71c-0.8,1.06-0.92,2.27-1,3.42c-0.13,2.32,0.29,4.57,0.75,6.76c0.23,1.1,0.5,2.2,0.83,3.28
	c0.31,1.09,0.71,2.15,1.19,3.18c0.48,1.03,1.03,2.05,1.82,2.9c0.71,0.78,1.72,1.43,2.78,1.38c0.69,2.6,1.56,5.15,2.65,7.62
	c1.79,4.05,4.27,7.86,7.57,10.92c3.29,3.03,7.68,5.04,12.25,5.11c4.57-0.07,8.96-2.08,12.25-5.11c3.3-3.06,5.77-6.87,7.57-10.92
	c1.79-4.06,3.04-8.34,3.78-12.69C73.36,62.41,73.66,58.01,73.58,53.61z M68.11,79.1c-1.88,3.91-4.27,7.62-7.47,10.52
	c-3.18,2.88-7.31,4.7-11.57,4.75c-4.25-0.05-8.38-1.86-11.57-4.75c-3.2-2.9-5.59-6.61-7.47-10.52c-3.74-7.9-5.16-16.73-5.47-25.49
	c-0.08,4.4,0.22,8.8,0.91,13.16c0.29,1.69,0.67,3.36,1.11,5.02c-1.02-0.15-1.82-0.84-2.38-1.65c-0.62-0.88-1.1-1.86-1.46-2.9
	c-0.73-2.06-1.25-4.21-1.68-6.37c-0.42-2.18-0.85-4.34-0.82-6.5c0.03-1.05,0.11-2.18,0.62-2.97c0.26-0.38,0.63-0.57,1.11-0.53
	c0.47,0.02,0.95,0.29,1.42,0.52c0.41,0.28,0.75,0.66,0.97,1.12c0.12,0.23,0.19,0.48,0.28,0.74c0.09,0.22,0.18,0.61,0.5,0.58
	c-0.3-0.04-0.31-0.38-0.36-0.62c-0.04-0.26-0.1-0.53-0.18-0.8c-0.16-0.53-0.5-1.03-0.93-1.41l0,0l-0.01-0.01
	c-0.47-0.33-0.97-0.68-1.62-0.77c-0.08-0.02-0.16-0.01-0.24-0.01c0.2-3.41,0.28-6.77,0.56-10.12c0.26-3.33,0.71-6.62,1.51-9.92
	c0.07,0.01,0.15,0.01,0.21-0.01c0.16-0.05,0.28-0.14,0.35-0.21c0.17-0.16,0.27-0.33,0.38-0.49c0.19-0.32,0.36-0.63,0.52-0.96
	l0.92-1.89c-0.02,0.1-0.05,0.2-0.07,0.3c-0.22,0.67-0.28,1.45-0.17,2.15c0.03,0.18,0.07,0.36,0.16,0.53
	c0.05,0.08,0.12,0.19,0.25,0.18c0.13-0.02,0.18-0.11,0.24-0.18c0.21-0.31,0.3-0.65,0.42-0.99c-0.14,0.32-0.27,0.67-0.48,0.94
	c-0.12,0.14-0.25,0.18-0.32-0.01c-0.06-0.15-0.09-0.32-0.1-0.5c-0.06-0.71,0.02-1.38,0.29-2.05c0.11-0.34,0.22-0.67,0.29-1.05
	c0.01-0.05,0.02-0.1,0.01-0.19c0-0.04-0.09-0.26-0.29-0.18c-0.07,0.03-0.1,0.07-0.12,0.09c-0.08,0.09-0.13,0.16-0.18,0.24
	l-0.28,0.47l-1.04,1.86c-0.18,0.3-0.35,0.61-0.54,0.9c-0.09,0.13-0.19,0.27-0.28,0.35c-0.01,0.01-0.02,0.02-0.03,0.03
	c-0.05-0.13-0.06-0.48-0.02-0.74c0.04-0.33,0.11-0.66,0.21-0.99c0.19-0.66,0.45-1.29,0.75-1.93c0.15-0.34,0.31-0.63,0.43-1.07
	c0.01-0.06,0.04-0.13,0.02-0.3c-0.02-0.09-0.07-0.18-0.13-0.25c-0.08-0.1-0.31-0.15-0.37-0.12c-0.12,0.02-0.22,0.07-0.23,0.09
	c-0.15,0.1-0.21,0.17-0.28,0.24c-0.14,0.14-0.26,0.28-0.37,0.43c-0.26,0.32-0.5,0.64-0.74,0.96c0.21-0.42,0.41-0.85,0.64-1.26
	c0.17-0.31,0.34-0.6,0.53-0.9c0.1-0.16,0.19-0.32,0.29-0.49c0.09-0.19,0.19-0.32,0.26-0.66c0-0.08,0.07-0.25-0.13-0.54
	c-0.32-0.32-0.55-0.21-0.65-0.2c-0.2,0.05-0.29,0.11-0.39,0.17c-0.19,0.11-0.34,0.22-0.49,0.34c-0.3,0.23-0.58,0.47-0.85,0.71
	c-0.12,0.11-0.23,0.22-0.35,0.33c0.13-0.31,0.3-0.63,0.48-0.9c0.34-0.56,0.81-0.97,1.33-1.58c0.24-0.3,0.47-0.61,0.66-0.99
	c0.09-0.2,0.18-0.39,0.22-0.69c0.02-0.13,0.02-0.35-0.1-0.58c-0.13-0.26-0.47-0.4-0.64-0.4c-0.09,0-0.16,0-0.23,0.01l0.13-0.15
	c0.92-1.08,1.91-2.01,2.91-3.13c0.12-0.15,0.24-0.29,0.35-0.46c0.11-0.19,0.25-0.28,0.31-0.74c0-0.16-0.06-0.39-0.27-0.52
	c-0.11-0.08-0.17-0.08-0.23-0.09c-0.06-0.01-0.14-0.02-0.18-0.02c-0.17,0.01-0.29,0.04-0.39,0.08c-0.21,0.07-0.38,0.15-0.55,0.24
	c-0.34,0.18-0.6,0.33-0.91,0.45c-0.12,0.05-0.24,0.08-0.35,0.11c0,0,0,0,0-0.01c0.06-0.13,0.14-0.27,0.23-0.41
	c0.18-0.27,0.4-0.58,0.61-0.78c0.44-0.45,1.04-0.82,1.65-1.14c1.23-0.64,2.56-1.12,3.91-1.49c1.35-0.38,2.74-0.64,4.15-0.73
	c1.29-0.06,2.62,0.02,3.85,0.48c-0.22,0.27-0.42,0.56-0.6,0.86c-0.29,0.47-0.54,0.94-0.77,1.42c-0.23,0.45-0.48,1.02-0.6,1.55
	c-0.28,1.08-0.36,2.19-0.23,3.29c0.13,1.1,0.5,2.23,1.29,3.13c0.49,0.57,1.14,0.94,1.83,1.18c-2.18,0.42-4.32,1.25-6.09,2.69
	c-1.99,1.61-3.34,3.84-4.45,6.07c-1.17,2.2-1.97,4.67-2.51,7.1c-0.54,2.45-0.92,4.92-1.19,7.4c-0.24,2.49-0.38,4.97-0.4,7.48
	c0.09,2.52,0.23,4.98,0.49,7.47c0.27,2.48,0.64,4.95,1.2,7.38c0.56,2.41,1.3,4.78,2.13,7.1l-0.79,0.04l0.84,0.04l0.01,0
	c0.02-0.01,0.03-0.03,0.02-0.05c-1.3-4.79-2.24-9.65-2.53-14.59c-0.15-2.46-0.32-4.95-0.35-7.39c0.04-2.45,0.23-4.92,0.48-7.37
	c0.5-4.89,1.24-9.82,3.36-14.25c1-2.23,2.21-4.4,4.03-6.02c0.89-0.82,1.92-1.5,3.03-2.03c0.92-0.42,1.88-0.74,2.86-1.02
	c0.37,0.11,0.75,0.2,1.12,0.22c0.57,0.04,1.13,0,1.67-0.08l1.53-0.22c1.02-0.12,2.04-0.21,3.07-0.24c2.05-0.07,4.1,0.04,6.11,0.41
	c4.01,0.71,7.84,2.49,10.86,5.24c1.51,1.37,2.83,2.96,3.89,4.7c0.99,1.73,1.56,3.75,2.05,5.74c0.95,4.02,1.51,8.15,1.87,12.28
	c0.35,8.24-0.32,16.67-2.76,24.63l0,0l0.01,0.01l0.64-0.01C69.53,75.79,68.88,77.47,68.11,79.1z"/>
<path class="st2" d="M79.79,54.56c-0.13-1.12-0.38-2.28-1.09-3.27c-0.37-0.48-1-0.82-1.6-0.75c-0.61,0.03-1.09,0.39-1.52,0.71
	c0.5-0.22,1.01-0.47,1.52-0.41c0.5,0.03,0.91,0.34,1.15,0.77c0.49,0.88,0.62,1.96,0.66,3.01c0.02,1.06-0.04,2.13-0.24,3.17
	c-0.2,1.03-0.46,2.13-0.7,3.18c-0.49,2.12-1.03,4.23-1.78,6.25c-0.39,1-0.8,2-1.41,2.87c-0.58,0.87-1.41,1.65-2.54,1.74
	c1.14,0.19,2.23-0.57,2.98-1.39c0.77-0.85,1.31-1.86,1.79-2.87c0.95-2.04,1.55-4.19,2.07-6.34c0.23-1.09,0.47-2.14,0.66-3.27
	C79.87,56.83,79.92,55.69,79.79,54.56z"/>
<path class="st2" d="M73.95,26.79c-0.7-0.93-1.39-1.85-2.14-2.73c1.1,2.04,2.33,3.99,3.05,6.13c0.75,2.13,1.25,4.35,1.59,6.6
	c0.7,4.5,0.82,9.09,0.97,13.71c0.73-4.57,0.82-9.26,0.14-13.88c-0.37-2.3-0.94-4.6-1.89-6.75C75.23,28.77,74.62,27.75,73.95,26.79z"
	/>
<path class="st2" d="M49.74,75.68c-0.02-0.06-0.05-0.11-0.05-0.11c-0.79-0.47-2.7,0.2-4.46,0.33c-1.91,0.14-6.03-0.36-6.45-0.73
	c1.06,1.45,8.51,1.8,10.24,1.69l0,0c0,0,0.01,0,0.02,0c0,0,0.01,0,0.01,0c1.02-0.05,2.64-0.25,3.74-0.58
	c2.11-0.62,4.29-1.79,6.63-4.56c-1.19,0.81-3.43,2.42-5.1,2.92C52.81,75.1,50.46,74.92,49.74,75.68z"/>
<path class="st2" d="M55.59,78.1c-0.51,0.36-1.1,0.61-1.71,0.77c-1.2,0.28-2.52,0.22-3.8,0.25c-1.29,0.01-2.57,0.04-3.83-0.1
	c-1.26-0.12-2.48-0.52-3.52-1.3c0.85,1,2.16,1.57,3.45,1.79c1.31,0.23,2.62,0.19,3.91,0.16c1.29-0.06,2.6-0.02,3.9-0.42
	c0.63-0.22,1.24-0.51,1.74-0.95c0.51-0.44,0.85-1.02,1.13-1.6C56.49,77.22,56.12,77.75,55.59,78.1z"/>
<path class="st2" d="M43.63,45.5c1.07,0.84,1.99,1.89,2.63,3.14c-0.43-1.34-1.3-2.52-2.35-3.47c-1.06-0.95-2.33-1.65-3.67-2.13
	c-1.35-0.43-2.8-0.66-4.22-0.45c-1.41,0.19-2.81,0.84-3.65,1.98c1.02-0.96,2.36-1.45,3.7-1.55c1.35-0.1,2.71,0.1,3.99,0.56
	C41.35,43.99,42.55,44.66,43.63,45.5z"/>
<path class="st2" d="M56,46.08c-0.7,0.01-1.43,0.15-2.03,0.56c-0.58,0.43-0.94,1.08-1.07,1.75c0.25-0.63,0.65-1.21,1.22-1.52
	c0.56-0.31,1.23-0.4,1.88-0.36c1.31,0.09,2.62,0.46,3.91,0.84c1.3,0.37,2.6,0.79,3.93,1.09c1.33,0.3,2.7,0.54,4.06,0.48
	c-2.71-0.35-5.22-1.34-7.84-2.11C58.75,46.44,57.41,46.06,56,46.08z"/>
<g>
	<g>
		<g>
			<path d="M76.63,50.43l-3.18,0.61l-0.47-0.24c-1.17-0.61-2.49-1.3-3.59-1.84c-1.78-1.34-4.15-2.17-6.75-2.17
				c-3.59,0-6.74,1.57-8.51,3.92l-0.34,0.01c-1.69-0.52-3.1-0.6-4.28-0.6c-1.16,0-2.47,0.08-4.13,0.6l-0.34-0.01
				c-1.77-2.35-4.92-3.92-8.51-3.92c-2.6,0-4.96,0.83-6.75,2.17c-1.1,0.54-2.42,1.23-3.59,1.84l-0.47,0.24l-3.18-0.61l-0.13,0.55
				c0.28,0.08,0.58,0.23,0.91,0.45c0.76,0.6,0.94,1.3,1.07,1.82c0.1,0.42,0.22,0.89,0.72,0.89c0.36,0,1,0.37,1.39,0.89
				c0,0.01,0,0.02,0,0.03c0,4.79,4.03,9.93,10.04,9.93c5.99,0,10.02-5.13,10.02-9.93c0-0.87-0.17-1.71-0.47-2.5l0.02-0.87
				c1.56-0.43,2.73-0.43,3.41-0.43c1,0,2.18,0.06,3.56,0.44l0.02,0.87c-0.31,0.79-0.47,1.63-0.47,2.5c0,4.79,4.02,9.93,10.02,9.93
				c6,0,10.04-5.13,10.04-9.93c0-0.01,0-0.02,0-0.03c0.39-0.52,1.03-0.89,1.39-0.89c0.5,0,0.62-0.47,0.72-0.89
				c0.13-0.51,0.31-1.22,1.05-1.8c0.34-0.23,0.64-0.38,0.92-0.46L76.63,50.43z M36.56,63.85c-5.81,0-8.91-5.11-8.91-8.8
				c0-3.94,3.99-7.14,8.9-7.14c3.56,0,6.63,1.69,8.05,4.12c0.06,0.1,0.12,0.2,0.17,0.3c0.43,0.84,0.67,1.76,0.67,2.72
				C45.45,58.74,42.36,63.85,36.56,63.85z M62.64,63.85c-5.8,0-8.89-5.11-8.89-8.8c0-0.97,0.24-1.89,0.68-2.73
				c0.05-0.09,0.1-0.18,0.16-0.27c1.42-2.44,4.49-4.14,8.06-4.14c4.91,0,8.9,3.2,8.9,7.14C71.55,58.74,68.45,63.85,62.64,63.85z"/>
		</g>
	</g>
</g>
</svg>
