<?xml version="1.0" encoding="utf-8"?>
<!-- Generator: Adobe Illustrator 25.0.1, SVG Export Plug-In . SVG Version: 6.00 Build 0)  -->
<svg version="1.1" id="Calque_1" xmlns="http://www.w3.org/2000/svg" xmlns:xlink="http://www.w3.org/1999/xlink" x="0px" y="0px"
	 viewBox="0 0 281.89 51.1" style="enable-background:new 0 0 281.89 51.1;" xml:space="preserve">
<style type="text/css">
	.st0{fill:#FFFFFF;}
</style>
<g>
	<polygon class="st0" points="114.43,28.58 114.43,40.76 128.71,42.72 128.71,28.58 	"/>
	<polygon class="st0" points="149.86,26.66 149.86,9.82 130.64,12.45 130.64,26.66 	"/>
	<polygon class="st0" points="128.71,12.71 114.43,14.67 114.43,26.66 128.71,26.66 	"/>
	<polygon class="st0" points="130.64,42.98 149.86,45.62 149.86,28.58 130.64,28.58 	"/>
</g>
<g>
	<g>
		<path class="st0" d="M83.13,17.86c-1.1,0-3.56-1.78-6.94-1.78s-9.31,2.88-9.31,11.94s6.94,17.59,9.98,17.59
			c3.8,0,3.47-1.86,6.26-1.86s2.46,1.86,6.26,1.86c2.23,0,6.55-4.59,8.7-10.61c-2.8-1.45-4.72-4.38-4.72-7.75
			c0-2.99,1.51-5.63,3.8-7.2c-2.03-2.9-5.04-3.97-7.11-3.97C86.68,16.09,84.23,17.86,83.13,17.86z"/>
	</g>
	
		<ellipse transform="matrix(0.6887 -0.7251 0.7251 0.6887 19.0413 66.1629)" class="st0" cx="86.57" cy="10.91" rx="5.91" ry="2.99"/>
</g>
<g>
	<g>
		<path class="st0" d="M188.51,20.18l-5.84,18.71h-2.5l-4.56-13.88c-0.1-0.28-0.2-0.61-0.27-1c-0.1,0.4-0.19,0.73-0.27,1
			l-4.61,13.88h-2.49l-5.84-18.71h2.32c0.24,0,0.45,0.06,0.61,0.18c0.17,0.12,0.27,0.28,0.33,0.48l3.69,12.52
			c0.07,0.24,0.13,0.51,0.19,0.8c0.06,0.29,0.11,0.59,0.18,0.9c0.06-0.31,0.12-0.61,0.19-0.9c0.06-0.29,0.14-0.55,0.23-0.8
			l4.22-12.52c0.05-0.17,0.16-0.32,0.33-0.46c0.17-0.13,0.37-0.2,0.6-0.2h0.8c0.24,0,0.44,0.06,0.6,0.18
			c0.15,0.12,0.27,0.28,0.34,0.47l4.21,12.52c0.16,0.48,0.29,1.02,0.42,1.63c0.1-0.6,0.22-1.14,0.34-1.63l3.7-12.52
			c0.04-0.17,0.15-0.32,0.33-0.46c0.17-0.13,0.38-0.2,0.61-0.2H188.51z"/>
		<path class="st0" d="M193.68,21.56c0,0.24-0.05,0.46-0.14,0.67c-0.1,0.21-0.22,0.4-0.38,0.56c-0.16,0.16-0.35,0.29-0.57,0.38
			c-0.22,0.09-0.44,0.14-0.68,0.14c-0.24,0-0.46-0.05-0.66-0.14c-0.21-0.09-0.39-0.22-0.56-0.38c-0.16-0.16-0.29-0.35-0.38-0.56
			c-0.09-0.21-0.14-0.44-0.14-0.67c0-0.24,0.04-0.47,0.14-0.68c0.09-0.21,0.22-0.4,0.38-0.56c0.16-0.16,0.35-0.29,0.56-0.38
			c0.21-0.09,0.43-0.14,0.66-0.14c0.23,0,0.46,0.05,0.68,0.14c0.22,0.09,0.41,0.22,0.57,0.38c0.16,0.16,0.29,0.35,0.38,0.56
			C193.64,21.09,193.68,21.32,193.68,21.56z M193.2,25.66V38.9h-2.54V25.66H193.2z"/>
		<path class="st0" d="M199.27,27.49c0.29-0.3,0.59-0.58,0.9-0.83s0.64-0.47,1-0.64s0.73-0.32,1.13-0.42c0.4-0.1,0.84-0.15,1.3-0.15
			c0.73,0,1.37,0.12,1.92,0.36c0.55,0.24,1.01,0.59,1.39,1.02c0.38,0.44,0.66,0.96,0.85,1.58s0.29,1.3,0.29,2.05v8.43h-2.55v-8.43
			c0-0.95-0.22-1.68-0.65-2.21c-0.43-0.52-1.1-0.79-1.99-0.79c-0.65,0-1.26,0.15-1.83,0.46c-0.57,0.31-1.1,0.73-1.58,1.26v9.71
			h-2.54V25.66h1.52c0.35,0,0.58,0.17,0.66,0.51L199.27,27.49z"/>
		<path class="st0" d="M222.56,19.66V38.9h-1.54c-0.36,0-0.58-0.17-0.66-0.51l-0.22-1.52c-0.56,0.67-1.2,1.2-1.92,1.61
			c-0.72,0.41-1.54,0.61-2.48,0.61c-0.76,0-1.44-0.15-2.05-0.44c-0.61-0.29-1.13-0.73-1.57-1.3c-0.43-0.57-0.77-1.27-1-2.12
			c-0.24-0.84-0.35-1.81-0.35-2.91c0-0.98,0.13-1.89,0.39-2.74s0.64-1.57,1.13-2.19c0.49-0.62,1.09-1.1,1.8-1.45
			c0.7-0.35,1.5-0.53,2.38-0.53c0.8,0,1.48,0.13,2.04,0.39c0.56,0.26,1.06,0.63,1.51,1.11v-7.25H222.56z M220.01,28.86
			c-0.42-0.55-0.87-0.93-1.35-1.15c-0.48-0.22-1.02-0.32-1.62-0.32c-1.16,0-2.07,0.42-2.7,1.26c-0.64,0.84-0.96,2.06-0.96,3.67
			c0,0.84,0.07,1.56,0.21,2.16c0.14,0.6,0.35,1.08,0.63,1.46s0.61,0.66,1.01,0.83c0.4,0.18,0.85,0.27,1.36,0.27
			c0.74,0,1.38-0.16,1.92-0.49c0.54-0.33,1.04-0.8,1.51-1.39V28.86z"/>
		<path class="st0" d="M231.76,25.45c0.97,0,1.85,0.16,2.64,0.48c0.79,0.32,1.45,0.77,2.01,1.37c0.55,0.59,0.98,1.31,1.27,2.15
			c0.3,0.84,0.44,1.78,0.44,2.82c0,1.04-0.15,1.99-0.44,2.83c-0.29,0.84-0.72,1.56-1.27,2.15c-0.55,0.59-1.22,1.04-2.01,1.36
			c-0.79,0.32-1.66,0.48-2.64,0.48c-0.98,0-1.87-0.16-2.65-0.48c-0.79-0.32-1.46-0.77-2.01-1.36c-0.56-0.59-0.98-1.31-1.29-2.15
			c-0.3-0.84-0.45-1.79-0.45-2.83c0-1.04,0.15-1.98,0.45-2.82c0.3-0.84,0.73-1.56,1.29-2.15c0.56-0.6,1.23-1.05,2.01-1.37
			C229.89,25.61,230.78,25.45,231.76,25.45z M231.76,37.1c1.25,0,2.18-0.42,2.8-1.26c0.62-0.84,0.92-2.03,0.92-3.56
			c0-1.53-0.31-2.72-0.92-3.57c-0.62-0.85-1.55-1.27-2.8-1.27c-1.27,0-2.21,0.42-2.83,1.27c-0.62,0.85-0.93,2.04-0.93,3.57
			c0,1.53,0.31,2.71,0.93,3.56C229.55,36.68,230.49,37.1,231.76,37.1z"/>
		<path class="st0" d="M259.16,25.66L254.9,38.9h-2.03c-0.24,0-0.41-0.16-0.5-0.48l-2.79-8.63c-0.07-0.22-0.13-0.43-0.18-0.64
			c-0.05-0.21-0.1-0.43-0.14-0.64c-0.08,0.45-0.19,0.89-0.33,1.32l-2.83,8.6c-0.09,0.32-0.27,0.48-0.56,0.48h-1.93l-4.27-13.24h2.01
			c0.2,0,0.37,0.05,0.5,0.14c0.13,0.1,0.22,0.22,0.27,0.36l2.38,8.13c0.08,0.33,0.15,0.65,0.21,0.96c0.06,0.31,0.12,0.63,0.17,0.94
			c0.08-0.31,0.16-0.63,0.25-0.94c0.09-0.31,0.18-0.63,0.28-0.96l2.65-8.18c0.04-0.15,0.13-0.27,0.25-0.36
			c0.12-0.09,0.27-0.14,0.44-0.14h1.11c0.19,0,0.35,0.05,0.48,0.14c0.13,0.09,0.21,0.21,0.25,0.36l2.58,8.18
			c0.1,0.33,0.19,0.65,0.27,0.97c0.09,0.32,0.17,0.64,0.24,0.96c0.05-0.31,0.11-0.63,0.18-0.94c0.07-0.32,0.15-0.64,0.23-0.98
			l2.42-8.13c0.04-0.15,0.13-0.27,0.27-0.36c0.13-0.1,0.29-0.14,0.46-0.14H259.16z"/>
		<path class="st0" d="M269.01,27.94c-0.07,0.11-0.14,0.19-0.22,0.24c-0.08,0.05-0.18,0.07-0.3,0.07c-0.14,0-0.29-0.05-0.46-0.14
			c-0.17-0.1-0.37-0.2-0.61-0.31c-0.24-0.11-0.52-0.22-0.84-0.31c-0.32-0.1-0.7-0.14-1.15-0.14c-0.36,0-0.7,0.05-1,0.14
			c-0.3,0.09-0.55,0.22-0.76,0.38c-0.21,0.16-0.37,0.35-0.48,0.57c-0.11,0.22-0.17,0.46-0.17,0.71c0,0.33,0.1,0.6,0.29,0.82
			c0.2,0.22,0.45,0.41,0.77,0.56c0.32,0.16,0.68,0.3,1.08,0.42c0.41,0.13,0.82,0.26,1.24,0.4c0.42,0.14,0.83,0.3,1.24,0.48
			c0.4,0.18,0.76,0.4,1.08,0.66c0.32,0.27,0.57,0.59,0.77,0.96c0.2,0.37,0.29,0.83,0.29,1.37c0,0.62-0.11,1.19-0.33,1.71
			c-0.22,0.53-0.55,0.98-0.98,1.36s-0.96,0.68-1.6,0.9c-0.63,0.22-1.36,0.32-2.18,0.32c-0.91,0-1.75-0.15-2.53-0.46
			c-0.77-0.3-1.42-0.69-1.94-1.16l0.6-0.98c0.07-0.12,0.15-0.22,0.26-0.28c0.11-0.07,0.24-0.1,0.42-0.1c0.17,0,0.34,0.06,0.51,0.18
			c0.17,0.12,0.38,0.25,0.63,0.4c0.24,0.14,0.54,0.27,0.88,0.39c0.35,0.12,0.78,0.18,1.3,0.18c0.43,0,0.81-0.05,1.13-0.16
			c0.32-0.11,0.59-0.25,0.8-0.44c0.21-0.19,0.37-0.4,0.48-0.64c0.11-0.24,0.16-0.5,0.16-0.77c0-0.35-0.1-0.64-0.29-0.87
			c-0.2-0.23-0.45-0.43-0.77-0.59c-0.32-0.17-0.68-0.31-1.09-0.43c-0.41-0.12-0.83-0.25-1.25-0.39c-0.43-0.14-0.84-0.3-1.25-0.48
			c-0.41-0.18-0.77-0.41-1.09-0.69c-0.32-0.28-0.57-0.62-0.77-1.02c-0.2-0.4-0.29-0.88-0.29-1.46c0-0.51,0.11-1,0.32-1.47
			c0.21-0.47,0.52-0.88,0.93-1.24c0.4-0.36,0.9-0.64,1.5-0.85c0.6-0.21,1.27-0.32,2.04-0.32c0.88,0,1.67,0.14,2.38,0.42
			s1.31,0.66,1.82,1.15L269.01,27.94z"/>
	</g>
</g>
<g>
	<path class="st0" d="M31.78,17.27v18.71h-2.42V22.66c0-0.2,0.01-0.41,0.02-0.64c0.01-0.23,0.03-0.46,0.05-0.69L23.2,32.76
		c-0.22,0.43-0.55,0.64-1,0.64H21.8c-0.45,0-0.78-0.21-0.99-0.64L14.47,21.3c0.05,0.49,0.08,0.94,0.08,1.37v13.32h-2.44V17.27h2.06
		c0.24,0,0.43,0.03,0.57,0.07c0.13,0.05,0.26,0.18,0.38,0.4l6.25,11.21c0.12,0.23,0.23,0.46,0.34,0.72c0.1,0.25,0.2,0.5,0.3,0.76
		c0.18-0.51,0.4-1.01,0.64-1.49l6.14-11.19c0.11-0.22,0.24-0.35,0.37-0.4c0.13-0.05,0.32-0.07,0.57-0.07H31.78z"/>
	<path class="st0" d="M35.17,24.59c0.74-0.7,1.54-1.23,2.41-1.58c0.86-0.35,1.81-0.52,2.85-0.52c0.76,0,1.43,0.12,2.01,0.37
		c0.58,0.25,1.07,0.59,1.47,1.04c0.4,0.44,0.7,0.97,0.91,1.59c0.21,0.62,0.31,1.3,0.31,2.05v8.44h-1.13c-0.25,0-0.44-0.04-0.57-0.12
		c-0.13-0.08-0.24-0.24-0.31-0.46l-0.27-1.16c-0.34,0.31-0.67,0.59-1.01,0.83c-0.33,0.24-0.67,0.44-1.03,0.61
		c-0.36,0.17-0.74,0.3-1.15,0.38c-0.41,0.09-0.86,0.13-1.36,0.13c-0.52,0-1.01-0.07-1.47-0.21s-0.85-0.36-1.19-0.66
		c-0.34-0.3-0.61-0.67-0.8-1.11c-0.2-0.44-0.29-0.96-0.29-1.55c0-0.52,0.14-1.02,0.42-1.5c0.28-0.48,0.74-0.91,1.38-1.3
		c0.64-0.38,1.47-0.69,2.5-0.94c1.03-0.24,2.3-0.38,3.8-0.42v-0.96c0-1-0.21-1.75-0.64-2.24c-0.42-0.5-1.05-0.74-1.87-0.74
		c-0.56,0-1.02,0.07-1.4,0.21c-0.38,0.14-0.7,0.29-0.98,0.46s-0.51,0.32-0.72,0.46c-0.2,0.14-0.41,0.21-0.63,0.21
		c-0.17,0-0.32-0.05-0.45-0.14c-0.13-0.1-0.23-0.21-0.31-0.34L35.17,24.59z M42.62,30.1c-1.03,0.03-1.91,0.11-2.63,0.24
		c-0.72,0.13-1.31,0.29-1.76,0.5c-0.45,0.21-0.78,0.45-0.98,0.74c-0.2,0.28-0.3,0.6-0.3,0.95c0,0.33,0.05,0.62,0.16,0.85
		c0.11,0.24,0.25,0.43,0.44,0.59c0.19,0.15,0.41,0.26,0.66,0.33c0.25,0.07,0.52,0.11,0.82,0.11c0.39,0,0.75-0.04,1.08-0.12
		c0.32-0.08,0.63-0.19,0.92-0.33c0.29-0.14,0.56-0.32,0.82-0.53c0.26-0.21,0.52-0.45,0.77-0.72V30.1z"/>
	<path class="st0" d="M57.81,25.22c-0.08,0.1-0.15,0.17-0.23,0.23c-0.07,0.06-0.18,0.08-0.32,0.08c-0.14,0-0.28-0.06-0.44-0.16
		c-0.15-0.11-0.34-0.23-0.57-0.35c-0.23-0.13-0.51-0.24-0.83-0.35c-0.33-0.11-0.73-0.16-1.2-0.16c-0.63,0-1.18,0.11-1.66,0.34
		c-0.48,0.22-0.87,0.55-1.19,0.96c-0.32,0.42-0.56,0.92-0.72,1.52c-0.17,0.6-0.25,1.27-0.25,2.02c0,0.77,0.09,1.46,0.26,2.07
		c0.17,0.6,0.42,1.11,0.74,1.52c0.32,0.41,0.71,0.73,1.17,0.94c0.46,0.21,0.97,0.32,1.54,0.32c0.55,0,1-0.07,1.36-0.2
		c0.36-0.13,0.65-0.28,0.89-0.44c0.24-0.16,0.43-0.3,0.59-0.44c0.15-0.13,0.32-0.2,0.48-0.2c0.21,0,0.37,0.08,0.48,0.24l0.73,0.94
		c-0.3,0.37-0.64,0.69-1.02,0.95s-0.78,0.47-1.2,0.64c-0.43,0.17-0.87,0.29-1.34,0.36s-0.94,0.12-1.41,0.12
		c-0.83,0-1.59-0.15-2.31-0.46s-1.34-0.75-1.86-1.33c-0.53-0.58-0.94-1.3-1.24-2.14c-0.3-0.85-0.46-1.81-0.46-2.89
		c0-0.98,0.14-1.89,0.41-2.72c0.27-0.84,0.68-1.55,1.21-2.16c0.53-0.6,1.19-1.08,1.97-1.42c0.78-0.34,1.68-0.52,2.69-0.52
		c0.95,0,1.78,0.15,2.5,0.46c0.72,0.31,1.36,0.74,1.93,1.29L57.81,25.22z"/>
</g>
</svg>
