<?xml version="1.0" encoding="utf-8"?>
<!-- Generator: Adobe Illustrator 25.0.1, SVG Export Plug-In . SVG Version: 6.00 Build 0)  -->
<svg version="1.1" id="Calque_1" xmlns="http://www.w3.org/2000/svg" xmlns:xlink="http://www.w3.org/1999/xlink" x="0px" y="0px"
	 viewBox="0 0 100 100" style="enable-background:new 0 0 100 100;" xml:space="preserve">
<style type="text/css">
	.st0{fill:#FFFFFF;}
</style>
<path class="st0" d="M63.78,35.15l-3.04,4.04l1.22,0.92l-6,7.97l-1.22-0.92l-5.81,7.71c-0.19,0.25-0.54,0.29-0.79,0.1
	c-0.25-0.19-0.31-0.54-0.12-0.79l5.81-7.71l-1.23-0.93l6-7.97l1.23,0.93l3.04-4.04c-6.31-4.25-16.2-1.21-22.4,7.02
	c-6.13,8.13-6.39,18.33-0.77,23.29c-1.09,1.01-1.98,1.49-2.66,1.41c-0.89-0.1-1.47-1.28-2.04-2.42c-0.13-0.26-0.26-0.52-0.39-0.76
	c-0.82-1.55-2.33-1.78-3.38-1.34c-0.99,0.42-1.85,1.53-1.38,3c0.08,0.26,0.35,0.4,0.61,0.32c0.26-0.08,0.4-0.35,0.32-0.61
	c-0.28-0.89,0.22-1.56,0.83-1.82c0.63-0.27,1.57-0.19,2.15,0.9c0.13,0.24,0.25,0.49,0.37,0.74c0.65,1.31,1.38,2.79,2.79,2.96
	c0.08,0.01,0.17,0.01,0.26,0.01c0.93,0,1.99-0.58,3.26-1.77c6.29,4.6,16.44,1.6,22.75-6.78C69.41,50.38,69.6,40.04,63.78,35.15z"/>
</svg>
